<?xml version="1.0" encoding="utf-8"?>
<!-- Generator: Adobe Illustrator 18.0.0, SVG Export Plug-In . SVG Version: 6.00 Build 0)  -->
<!DOCTYPE svg PUBLIC "-//W3C//DTD SVG 1.1//EN" "http://www.w3.org/Graphics/SVG/1.1/DTD/svg11.dtd">
<svg version="1.1" id="Ebene_1" xmlns="http://www.w3.org/2000/svg" xmlns:xlink="http://www.w3.org/1999/xlink" x="0px" y="0px"
	 viewBox="0 0 50 50" enable-background="new 0 0 50 50" xml:space="preserve">
<path fill="#222222" d="M50,25c0,13.8-11.2,25-25,25C11.2,50,0,38.8,0,25c0-0.8,0-1.6,0.1-2.4v-0.1c0.2-1.7,0.5-3.4,1-4.9v0
	C4.3,7.3,13.8,0,25,0c11.2,0,20.7,7.4,23.9,17.5v0c0.5,1.6,0.8,3.2,1,4.9v0.1C50,23.3,50,24.2,50,25z"/>
<g>
	
		<path fill="none" stroke="#FFFFFF" stroke-width="1.3228" stroke-linecap="round" stroke-linejoin="round" stroke-miterlimit="10" d="
		M18.3,40.1v-30c0,0,3.7,2.8,3.7,11.1c0,4.2-3.4,3.8-3.4,3.8"/>
	
		<line fill="none" stroke="#FFFFFF" stroke-width="1.3228" stroke-linecap="round" stroke-linejoin="round" stroke-miterlimit="10" x1="29.5" y1="40.1" x2="29.5" y2="21.2"/>
	
		<path fill="none" stroke="#FFFFFF" stroke-width="1.3228" stroke-linecap="round" stroke-linejoin="round" stroke-miterlimit="10" d="
		M25.7,17.1c0,2.1,1.7,3.8,3.8,3.8s3.8-1.7,3.8-3.8H25.7z"/>
	
		<line fill="none" stroke="#FFFFFF" stroke-width="1.3228" stroke-linecap="round" stroke-linejoin="round" stroke-miterlimit="10" x1="25.8" y1="17.4" x2="25.8" y2="9.9"/>
	
		<line fill="none" stroke="#FFFFFF" stroke-width="1.3228" stroke-linecap="round" stroke-linejoin="round" stroke-miterlimit="10" x1="28.3" y1="17" x2="28.3" y2="9.9"/>
	
		<line fill="none" stroke="#FFFFFF" stroke-width="1.3228" stroke-linecap="round" stroke-linejoin="round" stroke-miterlimit="10" x1="30.8" y1="17" x2="30.8" y2="9.9"/>
	
		<line fill="none" stroke="#FFFFFF" stroke-width="1.3228" stroke-linecap="round" stroke-linejoin="round" stroke-miterlimit="10" x1="33.3" y1="17.4" x2="33.3" y2="9.9"/>
</g>
</svg>
