<?xml version="1.0" encoding="utf-8"?>
<!-- Generator: Adobe Illustrator 18.0.0, SVG Export Plug-In . SVG Version: 6.00 Build 0)  -->
<!DOCTYPE svg PUBLIC "-//W3C//DTD SVG 1.1//EN" "http://www.w3.org/Graphics/SVG/1.1/DTD/svg11.dtd">
<svg version="1.1" id="Ebene_1" xmlns="http://www.w3.org/2000/svg" xmlns:xlink="http://www.w3.org/1999/xlink" x="0px" y="0px"
	 viewBox="0 0 50 50" enable-background="new 0 0 50 50" xml:space="preserve">
<path fill="#222222" d="M50,25c0,13.8-11.2,25-25,25S0,38.8,0,25c0-0.8,0-1.7,0.1-2.5c0.2-1.7,0.5-3.4,1-5C4.3,7.4,13.8,0,25,0
	c11.2,0,20.7,7.4,23.8,17.5c0.5,1.6,0.8,3.3,1,5C50,23.4,50,24.2,50,25z"/>
<g>
	
		<line fill="none" stroke="#FFFFFF" stroke-width="1.3228" stroke-linecap="round" stroke-linejoin="round" stroke-miterlimit="10" x1="9.4" y1="40.2" x2="40.6" y2="40.2"/>
	
		<line fill="none" stroke="#FFFFFF" stroke-width="1.3228" stroke-linecap="round" stroke-linejoin="round" stroke-miterlimit="10" x1="9.4" y1="37.5" x2="40.6" y2="37.5"/>
	
		<line fill="none" stroke="#FFFFFF" stroke-width="1.3228" stroke-linecap="round" stroke-linejoin="round" stroke-miterlimit="10" x1="12.9" y1="19" x2="35.9" y2="19"/>
	
		<line fill="none" stroke="#FFFFFF" stroke-width="1.3228" stroke-linecap="round" stroke-linejoin="round" stroke-miterlimit="10" x1="10.5" y1="25.3" x2="39.1" y2="25.3"/>
	<g>
		
			<line fill="none" stroke="#FFFFFF" stroke-width="1.3228" stroke-linecap="round" stroke-linejoin="round" stroke-miterlimit="10" x1="12.9" y1="37.5" x2="12.9" y2="25.9"/>
		
			<line fill="none" stroke="#FFFFFF" stroke-width="1.3228" stroke-linecap="round" stroke-linejoin="round" stroke-miterlimit="10" x1="18.7" y1="37.5" x2="18.7" y2="25.9"/>
		
			<line fill="none" stroke="#FFFFFF" stroke-width="1.3228" stroke-linecap="round" stroke-linejoin="round" stroke-miterlimit="10" x1="24.4" y1="37.5" x2="24.4" y2="25.9"/>
		
			<line fill="none" stroke="#FFFFFF" stroke-width="1.3228" stroke-linecap="round" stroke-linejoin="round" stroke-miterlimit="10" x1="30.2" y1="37.5" x2="30.2" y2="25.9"/>
		
			<line fill="none" stroke="#FFFFFF" stroke-width="1.3228" stroke-linecap="round" stroke-linejoin="round" stroke-miterlimit="10" x1="35.9" y1="37.5" x2="35.9" y2="25.9"/>
	</g>
	<g>
		
			<line fill="none" stroke="#FFFFFF" stroke-width="1.3228" stroke-linecap="round" stroke-linejoin="round" stroke-miterlimit="10" x1="15.8" y1="24.8" x2="15.8" y2="19.6"/>
		
			<line fill="none" stroke="#FFFFFF" stroke-width="1.3228" stroke-linecap="round" stroke-linejoin="round" stroke-miterlimit="10" x1="21.5" y1="24.8" x2="21.5" y2="19.6"/>
		
			<line fill="none" stroke="#FFFFFF" stroke-width="1.3228" stroke-linecap="round" stroke-linejoin="round" stroke-miterlimit="10" x1="27.3" y1="24.8" x2="27.3" y2="19.6"/>
		
			<line fill="none" stroke="#FFFFFF" stroke-width="1.3228" stroke-linecap="round" stroke-linejoin="round" stroke-miterlimit="10" x1="33" y1="24.8" x2="33" y2="19.6"/>
	</g>
	
		<path fill="none" stroke="#FFFFFF" stroke-width="1.3228" stroke-linecap="round" stroke-linejoin="round" stroke-miterlimit="10" d="
		M33.1,18.5c0-4.8-3.9-8.6-8.6-8.6s-8.6,3.9-8.6,8.6"/>
	
		<line fill="none" stroke="#FFFFFF" stroke-width="1.3228" stroke-linecap="round" stroke-linejoin="round" stroke-miterlimit="10" x1="24.4" y1="7.1" x2="24.4" y2="9.9"/>
</g>
</svg>
