<?xml version="1.0" encoding="utf-8"?>
<!-- Generator: Adobe Illustrator 18.0.0, SVG Export Plug-In . SVG Version: 6.00 Build 0)  -->
<!DOCTYPE svg PUBLIC "-//W3C//DTD SVG 1.1//EN" "http://www.w3.org/Graphics/SVG/1.1/DTD/svg11.dtd">
<svg version="1.1" id="Ebene_1" xmlns="http://www.w3.org/2000/svg" xmlns:xlink="http://www.w3.org/1999/xlink" x="0px" y="0px"
	 viewBox="0 0 50 50" enable-background="new 0 0 50 50" xml:space="preserve">
<path fill="#222222" d="M50,25c0,13.8-11.2,25-25,25C11.2,50,0,38.8,0,25c0-0.8,0-1.6,0.1-2.4v-0.1c0.2-1.7,0.5-3.4,1-5
	C4.3,7.3,13.8,0,25,0c11.2,0,20.7,7.4,23.9,17.5c0.5,1.6,0.8,3.2,1,4.9v0.1C50,23.3,50,24.2,50,25z"/>
<g>
	<g>
		
			<line fill="none" stroke="#FFFFFF" stroke-width="1.3228" stroke-linecap="round" stroke-linejoin="round" stroke-miterlimit="10" x1="16.3" y1="38.2" x2="16.3" y2="27.9"/>
		<g>
			<path fill="#FFFFFF" d="M20.5,23.6l-4.2,3.6l-4.2-3.6H20.5 M24.1,22.2H8.5l7.8,6.7L24.1,22.2L24.1,22.2z"/>
		</g>
		
			<ellipse fill="none" stroke="#FFFFFF" stroke-width="1.3228" stroke-linecap="round" stroke-linejoin="round" stroke-miterlimit="10" cx="16.2" cy="38.6" rx="3.9" ry="1.9"/>
	</g>
	
		<line fill="none" stroke="#FFFFFF" stroke-width="1.3228" stroke-linecap="round" stroke-linejoin="round" stroke-miterlimit="10" x1="17.3" y1="21.1" x2="16.2" y2="25.1"/>
	
		<line fill="none" stroke="#FFFFFF" stroke-width="1.3228" stroke-linecap="round" stroke-linejoin="round" stroke-miterlimit="10" x1="18.4" y1="17.2" x2="18" y2="18.4"/>
	<circle fill="none" stroke="#FFFFFF" stroke-width="1.3228" stroke-miterlimit="10" cx="17.7" cy="19.7" r="1.4"/>
	<circle fill="none" stroke="#FFFFFF" stroke-width="1.3228" stroke-miterlimit="10" cx="33.7" cy="21.1" r="7.8"/>
	
		<line fill="none" stroke="#FFFFFF" stroke-width="1.3228" stroke-linecap="round" stroke-linejoin="round" stroke-miterlimit="10" x1="33.7" y1="13.3" x2="33.7" y2="9.4"/>
	<g>
		
			<path fill="none" stroke="#FFFFFF" stroke-width="1.3228" stroke-linecap="round" stroke-linejoin="round" stroke-miterlimit="10" d="
			M26.3,19.7c4.7-0.5,9.9-0.5,14.7,0"/>
		
			<path fill="none" stroke="#FFFFFF" stroke-width="1.3228" stroke-linecap="round" stroke-linejoin="round" stroke-miterlimit="10" d="
			M26.3,22.4c4.7,0.5,9.9,0.5,14.7,0"/>
		
			<path fill="none" stroke="#FFFFFF" stroke-width="1.3228" stroke-linecap="round" stroke-linejoin="round" stroke-miterlimit="10" d="
			M27.2,16.9c4.2-1.2,8.8-1.2,13.1,0"/>
		
			<path fill="none" stroke="#FFFFFF" stroke-width="1.3228" stroke-linecap="round" stroke-linejoin="round" stroke-miterlimit="10" d="
			M27.2,25.3c4.2,1.2,8.8,1.2,13.1,0"/>
	</g>
	<g>
		
			<path fill="none" stroke="#FFFFFF" stroke-width="1.3228" stroke-linecap="round" stroke-linejoin="round" stroke-miterlimit="10" d="
			M35,13.7c0.5,4.7,0.5,9.9,0,14.7"/>
		
			<path fill="none" stroke="#FFFFFF" stroke-width="1.3228" stroke-linecap="round" stroke-linejoin="round" stroke-miterlimit="10" d="
			M32.3,13.7c-0.5,4.7-0.5,9.9,0,14.7"/>
		
			<path fill="none" stroke="#FFFFFF" stroke-width="1.3228" stroke-linecap="round" stroke-linejoin="round" stroke-miterlimit="10" d="
			M37.9,14.6c1.2,4.2,1.2,8.8,0,13.1"/>
		
			<path fill="none" stroke="#FFFFFF" stroke-width="1.3228" stroke-linecap="round" stroke-linejoin="round" stroke-miterlimit="10" d="
			M29.4,14.6c-1.2,4.2-1.2,8.8,0,13.1"/>
	</g>
</g>
</svg>
