<?xml version="1.0" encoding="utf-8"?>
<!-- Generator: Adobe Illustrator 18.0.0, SVG Export Plug-In . SVG Version: 6.00 Build 0)  -->
<!DOCTYPE svg PUBLIC "-//W3C//DTD SVG 1.1//EN" "http://www.w3.org/Graphics/SVG/1.1/DTD/svg11.dtd">
<svg version="1.1" id="Ebene_1" xmlns="http://www.w3.org/2000/svg" xmlns:xlink="http://www.w3.org/1999/xlink" x="0px" y="0px"
	 viewBox="-31.8 12.3 300 300" style="enable-background:new -31.8 12.3 300 300;" xml:space="preserve">
<style type="text/css">
	.st0{fill:#FF8888;}
	.st1{fill:#64A8D3;}
	.st2{fill:#4B7EB6;}
	.st3{fill:#62C5E3;}
	.st4{fill:#FD8823;}
	.st5{fill:#F9E582;}
	.st6{fill:#D09F34;}
	.st7{fill:#EDCA49;}
	.st8{fill:#F6DC6A;}
	.st9{fill:#FEA929;}
	.st10{fill:#FDD436;}
	.st11{opacity:0.6;}
	.st12{fill:#F2F2F2;}
</style>
<g>
	<g>
		<g>
			<ellipse class="st0" cx="83.7" cy="151.4" rx="32.8" ry="24.3"/>
		</g>
		<g>
			<ellipse class="st0" cx="173.5" cy="151.8" rx="28.6" ry="21.2"/>
		</g>
		<g>
			<g>
				<path class="st1" d="M213.9,215.7c0.2-3,0.3-6.2,0.9-9.1c1.5-4.1,2.9-9.1,1.5-13.4c-1.2-3.4-4.8-5.7-8.3-5.3
					c-0.7,0.1-0.7,0.2-0.7,0.2v-0.2c0-3.6,0-7.1,0-10.6c-0.1-19.8-1.1-37-2.1-49.7c-1.1-13.7-2.2-22.2-2.3-23.2
					c-0.2-2.3-0.7-4.6-1.5-7c-1.2-4-3.1-7.9-5.8-11.2c-4.2-5.5-9.6-9.8-15.7-13c-0.4-0.2-0.7-0.4-1.1-0.6
					c-4.9-2.5-10.2-4.4-15.6-5.9c-0.1,0-0.2-0.1-0.3-0.1c-4.9-1.4-10-2.3-14.6-3.1c-6.1-1-19.4-2.7-18.6-2c2.1,4.8-3,5.9-5.7,5.7
					c-1.5-0.1-3.3-0.7-4.3-1.9c-0.4-0.5-0.4-1.1-0.4-1.8c0-0.2,1.6-2.3,0.5-2.4c-1.1-0.6-4,0.1-4,0.1c-1.7,0-3.3,0-5,0.1
					c-2.9,0.1-5.9,0.2-8.9,0.3c-2.6,0.2-5.2,0.4-7.8,0.5c-7.3,0.2-14.5,2.1-21,5.7c-12.8,7-21.8,19.3-28.5,32.1
					C35.3,117.7,29.1,138,26.4,158c0,0-1.3,12.1-1.3,14.9c-4.3-3.8-11.9-1.5-7.5,11.4c4.3,12.9,3.4,21.6,4.5,28.9
					c0.9,6.1,3.4,18.5,6.9,23.6c24.5,36.8,90.6,38.8,172.9,25.7c6-1,13.5-6.3,13.4-13.1c-0.1-4.3-0.9-8.7-1.4-13
					C213.3,229.4,213.5,222.6,213.9,215.7z M112.4,152.5c0,0.1-1.4,1.7-2.5,3.1c-0.8,1-1.5,1.8-1.6,1.9c-0.3,1.8-0.9,3.3-1.8,4.6
					c0,0.1-0.1,0.2-0.2,0.2c-0.3,0.4-0.7,0.9-1,1.3c-0.4,0.5-0.9,1-1.5,1.5c0,0,0,0-0.1,0.1c-2.3,1.9-5.3,3.3-8.8,4.8
					c-3.6-2-7.6,1.8-11.6,1.5c-3.6,0.7-7-2.8-10.2-0.8c-3.7-1.2-7-4.8-9.6-7.3c-5-4.4-7.4-10.6-6.9-16.6c0-0.6-1.3-3.9-1.2-4.5
					l7.4-9c0.9-0.8,1.8,1.2,2.8,0.5l1-1.3l24.3-0.2l9.1,0.4h0c3.4,2.3,6.2,5.2,7.9,8.7c1.1,2.2,1.7,4.6,1.7,7.3c0,0.5,0.5,1,1,1.5
					c0.9,0.7,1.9,1.5,1.7,2.2C112.4,152.5,112.4,152.5,112.4,152.5z M190.1,161.7C190.1,161.7,190.1,161.7,190.1,161.7
					c-2.4,3.3-5.8,6-10,7.5h0c-0.3,0.2-0.7,0.3-1.1,0.4c0,0-0.1,0-0.1,0c-0.9,0.3-1.9,0.5-2.8,0.7c-0.1,0-0.2,0-0.3,0.1
					c-1.4,0.2-2.8,0.3-4.2,0.3c0,0,0,0-0.1,0c-0.9,0-1.9-0.1-2.8-0.2c-0.2,0-0.4,0-0.6-0.1c-2.5-0.4-4.9-1.3-6.9-2.6c0,0,0,0,0,0
					c-0.4-0.2-0.8-0.5-1.1-0.7c-3.7-2.6-6.3-6.3-7-10.8c-0.5-3,0.3-6.3,1.8-9.4c0.1,0,0.3,0.1,0.4,0.1c1,0.3,2,0.6,3,0.9
					c0.8,0.3,1.7,0.5,2.6,0.7c2.4,0.6,4.9,1,7.5,1.4c1,0.2,2,0.3,3,0.4c-1.8,0.8-3.3,2.1-3.8,3.9c1.8,5.5,11.3,3.6,12.8-1.2
					c-0.3-0.9-0.8-1.7-1.5-2.2c0.5,0,1,0,1.6,0c4.3,0,8.3-0.3,11.8-0.9c0.3,0,0.5-0.1,0.8-0.1C193.6,154,192.5,158.2,190.1,161.7z"
					/>
			</g>
		</g>
		<g>
			<path class="st1" d="M193,149.8c-0.3,0-0.5,0.1-0.8,0.1c-4,0.7-8.5,0.9-13.4,0.8c-1.8,0-3.7-0.1-5.7-0.3
				c-0.6-0.1-1.2-0.1-1.8-0.2h0c-5.9-0.7-11.4-1.8-16.1-3.3c-0.2-0.1-0.3-0.2-0.3-0.2"/>
			<path class="st2" d="M181.1,153.2c-0.8,0-1.5,0-2.3,0c-1.9,0-3.8-0.1-5.8-0.3c-0.6-0.1-1.2-0.1-1.8-0.2
				c-6.1-0.7-11.8-1.9-16.7-3.5c-0.6-0.2-0.9-0.5-1.1-0.6l2.2-2.7l0.4-1.2c4.6,1.5,10,2.6,15.6,3.2c0.5,0,1.2,0.1,1.8,0.2
				c1.8,0.2,3.7,0.2,5.5,0.3c4.7,0.1,9.1-0.1,13-0.8l0.8,2.3l-0.4-2.3l0.5-0.1l0.6,4.7l-0.2,0c-0.2,0-0.4,0.1-0.5,0.1
				C189.1,152.9,185.2,153.2,181.1,153.2z"/>
		</g>
		<g>
			<g>
				<path class="st1" d="M119.8,148.7c4.2-3.9,6.4-9.2,5.3-14.1c13.9-7,25-16.9,33.6-27.3c6.9-8.2,12.3-17,16.5-26.1
					c1.3-2.8,3.6-1.4,4.7-4.3c0.3-0.8-0.3-5.9-0.4-6.8C178.6,62,184,53.9,192,48.5c3.8-2.6,8.3-4.2,11.8-7.1
					c4.3-3.7,7.3-8.3,7.9-13.2c0.3-3.6-0.8-6.9-2-10.3c-0.8-2-1.7-4.1-2.8-6.1c-0.4-0.7-1-1.4-1.3-2.2c-0.4-1.4-0.4-2.9-0.6-4.3
					c-1.2,5.7-6.3,11.1-14.3,12.2c-8.2,1.2-20,4.4-20,11.6c-1-2.1-3.4-4.1-6.2-5.1c-4.9-1.8-10.8-0.8-16-0.8
					c-5.2-0.1-10.5-0.6-15.2-2.4c-5.3-2.1-8.4-5.9-9.5-10.2c-3.1,7.7-1.7,16.8,3.4,23.7c1.8,2.6,4.2,4.9,6.9,7
					c1.6,1.3,3.8,2.8,5.2,3.4c4,2,7.1,2.8,16.6,6c4.4,1.4,8.3,4.1,8.4,8c0,3.6-0.8,7.2-2.2,10.5c-1.2,2.8-2.9,5.4-5,8
					c-1.8,2-4.1,3.4-6.1,5.2c-2.4,2.1-5.1,4.1-7.9,6c-3.8,2.6-8.1,5.3-13.1,6.3c-1.9,0.4-4,0.6-5.8-0.2L119.8,148.7z"/>
			</g>
			<g>
				<path class="st1" d="M119.8,150.3c-0.2,0-0.5-0.1-0.7-0.2c-0.6-0.3-0.9-0.9-0.9-1.6l4.6-54.1c0-0.5,0.3-1,0.8-1.2
					c0.4-0.3,1-0.3,1.4-0.1c1.2,0.5,2.9,0.6,4.8,0.1c4.7-0.9,8.8-3.5,12.6-6.1c2.9-2,5.5-3.9,7.7-5.9c0.8-0.7,1.6-1.3,2.4-1.9
					c1.3-1,2.5-2,3.6-3.1c2-2.4,3.6-5,4.7-7.6c1.4-3.1,2.1-6.6,2.1-9.9c-0.1-3.7-5.2-5.8-7.3-6.5c-2.5-0.8-4.6-1.5-6.3-2.1
					c-5-1.6-7.5-2.5-10.6-4c-1.6-0.7-3.9-2.3-5.5-3.7c-3.1-2.4-5.4-4.8-7.1-7.3c-5.5-7.5-6.9-17.2-3.6-25.2c0.3-0.6,0.9-1,1.6-1
					c0.7,0,1.3,0.5,1.4,1.2c1.1,4.2,4,7.3,8.6,9.1c4.6,1.9,10,2.2,14.7,2.3c1.3,0,2.7-0.1,4.1-0.1c1.5-0.1,3-0.1,4.5-0.1
					c3.2,0,5.8,0.4,7.9,1.2c1.9,0.7,3.6,1.7,4.9,3c3.1-6.1,13.7-8.6,20.5-9.6c7.6-1.1,12-6.3,13-11c0.2-0.8,0.8-1.3,1.7-1.2
					c0.8,0.1,1.4,0.7,1.5,1.5l0.1,0.9c0.1,1.1,0.1,2.1,0.4,3.1c0.2,0.4,0.6,1,0.9,1.5l0.2,0.3c1.3,2.3,2.2,4.6,2.9,6.4
					c1.4,3.8,2.4,7.3,2.1,11c-0.6,5.1-3.6,10.1-8.4,14.3c-2.1,1.8-4.6,3.1-7,4.4c-1.7,0.9-3.3,1.8-4.9,2.8
					c-8.1,5.5-12.6,13.2-11.9,20.2c0.8,6.4,0.5,7.1,0.3,7.6c-0.8,2-2.1,2.6-3.1,3.1c-0.7,0.3-1.2,0.5-1.6,1.3
					c-4.4,9.5-10.1,18.4-16.7,26.4c-9.6,11.6-20.8,20.8-33.1,27.2c0.6,4.9-1.6,10.3-6,14.4C120.6,150.1,120.2,150.3,119.8,150.3z
					 M125.8,96.6l-4,47.2c1.8-2.9,2.4-6,1.8-8.9c-0.2-0.7,0.2-1.4,0.8-1.8c12.3-6.2,23.5-15.3,33.1-26.9c6.5-7.8,12-16.4,16.3-25.7
					c0.9-1.9,2.2-2.5,3.2-2.9c0.8-0.3,1.1-0.5,1.5-1.3c0,0,0.1-1-0.5-5.8c-0.9-8.4,4-17,13.2-23.3c1.7-1.1,3.4-2.1,5.1-3
					c2.4-1.3,4.6-2.5,6.5-4c4.2-3.6,6.8-7.9,7.3-12.2c0.3-3.1-0.7-6.1-1.9-9.6c-0.6-1.6-1.5-3.8-2.7-5.9l-0.1-0.2
					c-0.3-0.5-0.7-1-1-1.6c-2.6,4-7.1,7.4-13.5,8.3c-4.4,0.6-18.6,3.3-18.6,10.1c0,0.7-0.5,1.4-1.2,1.5c-0.7,0.2-1.5-0.2-1.8-0.9
					c-0.8-1.7-2.9-3.4-5.3-4.3c-1.8-0.7-4-1-6.8-1c-1.4,0-2.9,0.1-4.3,0.1c-1.5,0.1-2.9,0.1-4.3,0.1c-5-0.1-10.7-0.5-15.8-2.6
					c-3.8-1.5-6.8-3.9-8.7-7c-1.1,6.1,0.5,12.7,4.4,18.1c1.5,2.2,3.7,4.4,6.6,6.7c1.4,1.2,3.5,2.6,4.9,3.2c2.9,1.4,5.3,2.2,10.2,3.8
					c1.8,0.6,3.8,1.3,6.3,2.1c5.9,1.9,9.4,5.4,9.5,9.4c0,3.8-0.8,7.7-2.4,11.2c-1.3,2.9-3,5.7-5.2,8.4c-1.2,1.4-2.7,2.5-4,3.6
					c-0.8,0.6-1.5,1.2-2.3,1.8c-2.4,2-5.1,4.1-8,6.1c-4.1,2.8-8.5,5.5-13.7,6.6C128.8,96.7,127.2,96.8,125.8,96.6z"/>
			</g>
			<g>
				<path class="st1" d="M119.8,148.7c4.2-3.9,6.4-9.2,5.3-14.1c13.9-7,25-16.9,33.6-27.3c6.9-8.2,12.3-17,16.5-26.1
					c1.3-2.8,3.6-1.4,4.7-4.3c0.3-0.8-0.3-5.9-0.4-6.8C178.6,62,184,53.9,192,48.5c3.8-2.6,8.3-4.2,11.8-7.1
					c4.3-3.7,7.3-8.3,7.9-13.2c0.3-3.6-0.8-6.9-2-10.3c-0.8-2-1.7-4.1-2.8-6.1c-0.4-0.7-1-1.4-1.3-2.2c-0.4-1.4-0.4-2.9-0.6-4.3
					c-1.2,5.7-6.3,11.1-14.3,12.2c-8.2,1.2-20,4.4-20,11.6c-1-2.1-3.4-4.1-6.2-5.1c-4.9-1.8-10.8-0.8-16-0.8
					c-5.2-0.1-10.5-0.6-15.2-2.4c-5.3-2.1-8.4-5.9-9.5-10.2c-3.1,7.7-1.7,16.8,3.4,23.7c1.8,2.6,4.2,4.9,6.9,7
					c1.6,1.3,3.8,2.8,5.2,3.4c4,2,7.1,2.8,16.6,6c4.4,1.4,8.3,4.1,8.4,8c0,3.6-0.8,7.2-2.2,10.5c-1.2,2.8-2.9,5.4-5,8
					c-1.8,2-4.1,3.4-6.1,5.2c-2.4,2.1-5.1,4.1-7.9,6c-3.8,2.6-8.1,5.3-13.1,6.3c-1.9,0.4-4,0.6-5.8-0.2L119.8,148.7z"/>
			</g>
		</g>
		<g>
			<g>
				<path class="st3" d="M127.4,58.7c-1,0-1.9-0.8-1.9-1.9c0-11.1,9-20.1,20.1-20.1c1,0,1.9,0.8,1.9,1.9c0,1.1-0.8,1.9-1.9,1.9
					c-9,0-16.3,7.3-16.3,16.3C129.2,57.8,128.5,58.7,127.4,58.7z"/>
			</g>
		</g>
		<g>
			<g>
				<path class="st3" d="M122.5,53.4c-1,0-1.9-0.8-1.9-1.9c0-11.6-9.4-21.2-21.2-21.2c-1,0-1.9-0.8-1.9-1.9c0-1,0.8-1.9,1.9-1.9
					c13.8,0,24.9,11.2,24.9,24.9C124.4,52.5,123.5,53.4,122.5,53.4z"/>
			</g>
		</g>
		<g>
			<g>
				<path class="st3" d="M125.5,41.8c-1,0-1.8-0.8-1.9-1.8c-0.4-7.2,0.2-9.7,4-14.6c0.7-0.8,1.8-1,2.6-0.3c0.8,0.7,1,1.8,0.3,2.6
					c-3.1,4-3.8,5.5-3.2,12.2C127.4,40.7,126.6,41.7,125.5,41.8L125.5,41.8z"/>
			</g>
		</g>
		<g>
			<g>
				<g>
					<path class="st2" d="M180.3,153c-1.5,4.8-11,6.7-12.8,1.2c0,0,0-0.1-0.1-0.2c-0.4-1.6,0-3,0.9-4.1c0.6-0.8,1.3-1.4,2.2-1.9
						l8.9,0.7c0.4,0.4,0.7,1,0.9,1.6c0,0.2,0.1,0.3,0.1,0.4C180.6,151.5,180.5,152.3,180.3,153z"/>
				</g>
			</g>
		</g>
		<g>
			<path class="st2" d="M136.5,216.2c-59.9,0-113.1-39.2-113.8-39.7c-1-0.7-1.2-2.1-0.4-3.1c0.7-1,2.1-1.2,3.1-0.4
				c1,0.8,102.8,75.6,181.2,15.5c1-0.7,2.4-0.6,3.1,0.4c0.7,1,0.6,2.4-0.4,3.1C185.9,209.8,160.6,216.2,136.5,216.2z"/>
		</g>
		<g>
			<path class="st1" d="M214,236.4c6.3,2.1,7.5,7.5,7.5,7.5s-5.7,2.7-7,0.8c-1.2-1.7-6.5-4.2-6.5-4.2S212.2,235.9,214,236.4z"/>
		</g>
		<g>
			<g>
				<path class="st2" d="M90.1,151.3c-1.4,8.1-17.2,5.4-15.8-2.7C75.7,140.4,91.6,143.1,90.1,151.3z"/>
			</g>
		</g>
		<g>
			<path class="st2" d="M177.1,143.5c-6.3,0-11.5-1-15.1-2.1l-0.4-0.1l-0.9-0.3c-1.6-0.5-3-1-4.1-1.5l-1-0.4
				c-0.8-0.4-1.3-0.7-1.3-0.7c-1-0.6-1.4-2-0.7-3c0.6-1,2-1.4,3-0.8c0.1,0,0.4,0.2,0.9,0.5l0.9,0.4c0.8,0.4,2,0.8,3.3,1.2l0.4,0.1
				l0.8,0.2c4.7,1.4,12.1,2.8,21.2,1.6c0.2,0,0.5-0.1,0.8-0.1l0.7-0.1c2.3-0.4,4.6-0.9,7-1.6c1.2-0.4,2.4,0.3,2.8,1.5
				c0.4,1.2-0.3,2.4-1.5,2.8c-2.6,0.8-5.1,1.4-7.5,1.8l-1.6,0.2C182.1,143.4,179.5,143.5,177.1,143.5z"/>
		</g>
		<g>
			<path class="st2" d="M171.6,172.8l-1,0c-0.7,0-1.4-0.1-2-0.2c-0.3,0-0.7-0.1-1-0.2c-2.6-0.4-5-1.3-7.2-2.6l-0.3-0.2
				c-0.4-0.3-0.9-0.6-1.3-0.9c-4.3-3-7.1-7.3-7.9-12.2c-0.5-3.1,0.1-6.7,1.7-10.2v-0.4l0.4-0.5c1.5-3,3.7-5.8,6.2-7.8
				c0.9-0.8,2.3-0.7,3.1,0.3c0.8,0.9,0.7,2.3-0.3,3.1c-2,1.7-3.9,4.2-5.2,6.7l-0.2,0.3c-1.3,2.8-1.8,5.5-1.4,7.8
				c0.6,3.7,2.8,7,6.1,9.3c0.2,0.1,0.3,0.2,0.5,0.3l0.5,0.3c1.8,1.1,3.9,1.9,6.1,2.3l0.5,0.1c0.6,0.1,1.1,0.1,1.7,0.1l0,0l1.9,0.1
				c0.9,0,1.8-0.1,2.7-0.2l0.4-0.1c0.8-0.1,1.6-0.3,2.3-0.5l0,0l0.5-0.1c0,0,0,0,0,0l0.2,0c0.2-0.1,0.4-0.1,0.6-0.2l0.5-0.2
				c3.4-1.3,6.4-3.6,8.5-6.4l0.2-0.3c2.1-3.1,3-6.7,2.4-10.1c-0.4-2.8-1.8-5.3-3.8-7.4c-0.9-0.9-0.9-2.3,0-3.1
				c0.9-0.9,2.3-0.9,3.1,0c2.7,2.7,4.5,6.1,5.1,9.8c0.7,4.6-0.4,9.4-3.2,13.4l-0.2,0.4c-2.6,3.6-6.5,6.5-10.8,8.1l-0.2,0.1
				c-0.2,0.1-0.4,0.2-0.6,0.2l-0.3,0.2l-0.6,0c-0.9,0.3-1.8,0.5-2.7,0.6l-0.4,0.1c-1.6,0.3-2.9,0.3-4.2,0.3L171.6,172.8z"/>
		</g>
		<g>
			<polygon class="st1" points="55.7,143.6 60.9,133.8 87.5,132.9 101.5,130.8 108.7,141.2 90.7,146.7 75.2,147.9 			"/>
		</g>
		<g>
			<path class="st2" d="M76.2,150.3c-0.6,0-1.2,0-1.8,0c-7.3-0.1-13.7-1.2-18.5-3c-0.7-0.2-1.3-0.5-1.9-0.8l2.1-4.2
				c0.4,0.2,0.9,0.4,1.4,0.6c4.2,1.6,10.3,2.6,16.9,2.7c3,0.1,6,0,9-0.3c1.8-0.2,3.5-0.4,5.2-0.6l0.3,0c6.6-1,13.1-2.8,17.8-5.2
				l0.5-0.2l1.3,2l0.9,2.2c-0.3,0.1-0.5,0.3-0.8,0.4c-5,2.5-11.8,4.5-19.3,5.6l-0.3,0c-1.5,0.2-3.3,0.5-5.1,0.6
				C81.4,150.2,78.8,150.3,76.2,150.3z"/>
		</g>
		<g>
			<path class="st2" d="M72.5,136c-2.6,0-5-0.1-7.1-0.2l0,0l-1.6-0.1c-2.5-0.2-4.6-0.4-6.2-0.7l-1.4-0.2c-1.3-0.2-2-0.4-2-0.4
				c-1.2-0.3-1.9-1.5-1.6-2.7s1.5-1.9,2.7-1.6c0,0,0.6,0.2,1.7,0.3l1.4,0.2c1.5,0.2,3.5,0.5,5.7,0.6l0,0l1.5,0.1
				c7.4,0.5,19.3,0.4,33.3-2.7c0.4-0.1,0.8-0.2,1.3-0.3l1.1-0.3c3.5-0.8,7-1.9,10.6-3.1c1.2-0.4,2.4,0.2,2.8,1.4
				c0.4,1.2-0.2,2.4-1.4,2.8c-3.7,1.3-7.4,2.3-11,3.2l-2.4,0.6C89.2,135.4,79.8,136,72.5,136z"/>
		</g>
		<g>
			<path class="st2" d="M83.8,174.7c-1.2,0-2.4-0.1-3.7-0.2c-8-0.8-15.2-4.2-20.5-9.4c-5.3-5.4-7.9-12.1-7.2-19
				c0.1-0.8,0.2-1.5,0.4-2.3c0.4-1.9,1.1-3.9,2.1-5.8c1.3-2.4,2.9-4.5,5-6.4c0.9-0.8,2.4-0.8,3.2,0.1c0.8,0.9,0.8,2.4-0.1,3.2
				c-1.7,1.5-3,3.3-4,5.2c-0.8,1.5-1.3,3.1-1.7,4.7c-0.2,0.6-0.2,1.2-0.3,1.7c-0.6,5.5,1.5,11,5.9,15.4c4.5,4.5,10.7,7.4,17.7,8.1
				c8.2,0.8,16.2-1.6,21.6-6.5c0.6-0.5,1-0.9,1.4-1.4l0.3-0.3c0.2-0.3,0.4-0.5,0.6-0.8l0.2-0.3c1.4-1.8,2.4-3.7,3-5.8
				c0.4-1.1,0.6-2.2,0.7-3.3c0.1-0.5,0.1-0.9,0.1-1.3c0.1-2.9-0.5-5.6-1.8-8.2c-1.4-2.9-4.9-7.4-7.6-9.6c-1-0.8-1.1-2.2-0.3-3.2
				c0.8-1,2.2-1.1,3.2-0.3c3.2,2.6,7.2,7.6,8.8,11.1c1.5,3.2,2.3,6.6,2.2,10.1c0,0.5,0,1.1-0.1,1.8c-0.1,1.4-0.4,2.8-0.9,4.2
				c-0.7,2.5-1.9,4.9-3.6,7l-0.3,0.4c-0.3,0.4-0.6,0.7-0.9,1.1l-0.3,0.3c-0.6,0.6-1.1,1.2-1.7,1.7C99.7,171.9,92,174.7,83.8,174.7z"
				/>
		</g>
		<g>
			<path class="st4" d="M8,196.3c0,0,8.9-6.8,15.5-9.9s20.7-9.1,22.6-10s11.4-6.1,11.4-6.1l-2.8,8.6l-33.6,17.5l-10.9,1.6L8,196.3z"
				/>
		</g>
		<g>
			<g>
				<path class="st5" d="M27.7,172.5c-0.3,0.2-0.4,0.5-0.2,0.8c0.1,0.3,0.4,0.5,0.7,0.3c0.3-0.2,0.4-0.5,0.2-0.8
					C28.4,172.5,28.1,172.3,27.7,172.5z"/>
			</g>
			<g>
				<path class="st5" d="M29.9,171.6c-0.2-0.2-0.5-0.2-0.7-0.1c-0.2,0.1-0.4,0.3-0.6,0.5c-0.2,0.2-0.1,0.6,0.1,0.8
					c0.1,0.1,0.2,0.1,0.3,0.1c0,0.3,0.2,0.5,0.5,0.5c0.3,0,0.6-0.2,0.6-0.5C30.2,172.4,30.2,172,29.9,171.6z"/>
			</g>
			<g>
				<g>
					<g>
						<path class="st6" d="M32.8,171.8c0.4,0.4,0.8,0.9,1,1.5c0.1,0.2,0.2,0.4,0.4,0.4c0.3,0,0.3-0.3,0.3-0.4
							c0.7-1.7,2.1-2.1,3.8-2.2c1,0,1.8,0.6,2.4,1.3c0.4,0.4,0.6,0.4,1,0.1c1-0.8,1.7-1.8,2.1-3c0.7-2.4,4-2.6,5.4-0.5
							c1,1.6,1.7,3.4,1.2,5.4c0,0.2-0.1,0.4-0.2,0.6c0,0-0.1,0-0.1,0c-0.1-0.3,0-0.6,0.1-0.8c0.3-2.3-0.5-4.3-2.2-5.8
							c-0.7-0.6-2.7-0.6-3.2,0.1c-0.6,0.7-0.9,1.6-1.2,2.5c-0.1,0.1-0.1,0.1-0.2,0.2c-0.1,0-0.1,0-0.1,0.1c-0.4,0.6-0.8,1.1-1.3,1.5
							c-0.3,0.3-0.4,0.5,0.1,0.8c1.2,0.8,2.6,0.9,4,0.9c1,0,2-0.2,2.8,0.7c0.2,0.3,0.4,0.5,0.5,0.8c0.2,0.5,0.4,0.3,0.6,0.1l0,0
							c0.4,0.1,0.4-0.2,0.6-0.4c1-1.6,2.3-2,4.3-1.4c1,0.3,1.4,1.2,1.8,2c-0.3,0.1-0.4-0.2-0.5-0.4c-0.4-0.6-0.8-1.1-1.5-1.3
							c-0.2-0.1-0.4-0.2-0.6-0.1c-0.8-0.1-1.5,0-2.2,0.3c-0.3,0.1-0.2,0.4-0.4,0.5c-0.7,0.4-1.2,1.1-1.5,1.8l0,0
							c-0.3,0.2-0.6,0.4-1,0.6c-0.7,0.4-0.8,0.4-0.4,1.2c0.1,0.3,0.2,0.6,0.4,0.8c0.4,0.6,0.5,1.3,0.3,2c-0.2,1,0.1,1.9,0.3,2.9
							c-0.1,1.4-0.3,1.3,1.1,1.2c0.1,0,0.2,0,0.3,0c2.2-0.6,3.9-1.7,4.9-3.9c0.7-1.5,1.6-2.9,1.2-4.7c0,0,0.1-0.1,0.1-0.2
							c0.6,1,0.1,2-0.1,3c-0.3,1-0.8,1.9-1.3,2.8c-1.1,2-3,2.9-5.1,3.2c-0.8,0.1-1.1,0.3-1.4,1c-0.5,1.1-1.3,1.9-2.6,2.2
							c-1.1,0.3-2.2,0.4-3.3,0.4c-0.4,0-0.6,0.1-0.9,0.3c-0.6,0.7-1.5,1.1-2.3,1.5c-1.2,0.6-2.3,1.5-3.7,1.9
							c-0.8,0.2-1.7,0.1-2.4,0.3c-0.7,0.3-1,1.2-1.8,1.6c-1.6,0.9-3.1,1.7-5,1.2c-0.3-0.1-0.4,0.1-0.6,0.3c-1.6,2-3.6,3.5-6.3,3.6
							c-1.6,0.1-3-0.1-4.1-1.3c-0.1-0.1-0.3-0.2-0.5-0.2c-1.6-0.3-2.7-1.3-3.8-2.4c-0.9-1-1.3-2.1-0.7-3.5c0.4-1,1-1.6,2.1-1.6
							c0.5,0,0.7-0.2,0.8-0.7c0.1-0.6,0.4-1.2,0.7-1.8c0.5-0.9,1.1-1.8,1.6-2.7c0.8-1.4,2-2.4,3.3-3.2c0.4-0.3,0.9-0.5,1.5-0.4
							c0.4,0.1,0.4-0.1,0.3-0.4c-0.2-1.5,0.2-2.7,1.5-3.5c0.8-0.5,1.7-0.9,2.6-1.3c1-0.3,1.6-1.1,2-2c0.1-0.3,0.2-0.7,0-1
							c0-0.2,0.1-0.2,0-0.4c0.1-0.1,0-0.6-0.1-0.8c0.1,0,0.3-0.4,0.4-0.5c0.2-0.1,0.5,0.3,0.8,0.6c0.2,0.3,0,0.6-0.3,0.8
							c-0.2,0.1-0.4,0.3-0.3,0.6c-0.1,0.5,0.1,0.9,0.4,1.2c0.6,0.6,1.4,1,2.2,1.2c1.2,0.2,2.4,0.3,3.4,1.3c0.3,0.3,0.8,0.1,0.8-0.4
							c0.2-0.8,0-1.6-0.2-2.4c-0.1-1.2-1.2-1.9-1.5-2.9c0-0.1-0.2-0.1-0.3-0.1c-0.2-0.5-0.6-0.3-1-0.2c-0.3,0-0.6,0.4-0.7-0.1
							c-0.1-0.4,0.4-0.3,0.6-0.4c0,0,0-0.1,0-0.2c-0.3-0.1-0.6-0.2-0.9-0.2c-0.5-0.1-1-0.1-1.4,0.3c0,0-0.4,0.4-0.8,0.1
							c0.1-0.3,0.5-0.2,0.6-0.5c0.4-0.2,0.9-0.2,1.3-0.2c0.2,0,0.4,0.1,0.6,0.1c0.4,0.2,0.8,0.4,1.2,0.6
							C32.5,171.7,32.7,171.8,32.8,171.8z M24.6,188.6c-0.1-0.1-0.2-0.2-0.3-0.1l0,0c-0.3-0.1-0.6-0.3-0.9-0.4
							c-0.8-0.3-1.2-0.2-1.7,0.5c-0.5,0.5-0.7,1.2-0.9,1.8c0,0.1,0,0.1,0,0.2c0,0.2,0,0.3,0.1,0.5c0,0.1,0,0.1,0,0.2
							c0.2,0.6,0.4,1.2,0.7,1.7c0.2,0.6,0.9,0.8,1.2,1.3c0.2,0.5,0.7,0.7,1.1,0.9c1.5,0.8,3.1,1,4.8,1.1c0.1,0,0.3,0,0.2-0.2
							c0,0,0.1,0,0.1-0.1c0,0,0.1,0,0.1,0c0.8-0.1,1.5-0.2,2.2-0.6c0.1,0.1,0.2,0,0.2-0.1c0.2-0.1,0.3-0.2,0.5-0.2
							c0.9-0.6,1.6-1.4,2-2.4c0.1-0.1,0.2-0.2,0.2-0.4c0.5-0.7,0.9-1.4,0.9-2.3c0.1-0.1,0.1-0.3,0.1-0.5c0.1-0.1,0.2-0.2,0.1-0.4
							c0,0,0-0.1,0-0.1c0.3-0.4,0-0.8,0-1.2c-0.1-0.1-0.1-0.2-0.3-0.2c-0.1-0.1-0.1-0.2,0-0.4c0.2-0.2,0.1-0.3,0-0.5
							c-0.1-0.2-0.2-0.4-0.3-0.6c-0.4-2-1.8-2.9-3.6-2.2c-1.3,0.5-2.1,1.7-2.9,2.8c-0.6,0.8-1.2,1.5-2.1,1.8
							c-0.2,0.1-0.3,0.1-0.2,0.3c0.8,0.9,0.9,2,0.8,3.2c-0.1,1.5,0.1,2.8,1.5,3.7c-0.2,0.1-0.4-0.1-0.5-0.2c-1.1-0.7-1.2-1.8-1.3-3
							c0-0.1-0.1-0.1-0.1-0.2c0.4-1,0.1-1.9-0.3-2.8c-0.2-0.3-0.3-0.8-0.8-0.7c0,0,0-0.1-0.1-0.1C24.9,188.7,24.8,188.6,24.6,188.6
							L24.6,188.6z M20.8,185.2c-0.1,0-0.1,0.1-0.2,0.1c-1.3,0.7-2.3,2-2.1,3.4c0.2,1.1,0.4,2.3,0,3.5l0,0c-0.2,0.1-0.2,0.2-0.2,0.4
							c-0.1,0.2-0.1,0.3-0.2,0.5c-0.7,1-1.2,2-2,2.8c-0.3,0.3-0.4,0.8-0.3,1.2c0.3,1.6,1.4,2.7,3,2.9c1.9,0.2,3.8,0,5.5-1.2
							c0.6-0.5,1.3-0.9,1.8-1.5c0.2-0.2,0.5-0.5,0.3-0.7c-0.2-0.2-0.6-0.2-1,0c-0.1-0.2-0.2-0.3-0.4-0.3c-1.5-0.3-2.6-1.5-3.5-2.5
							c-1.4-1.6-1.4-3.8,0.1-5.4c0.5-0.5,1.1-0.7,1.8-0.4c0.4,0.2,0.9,0.3,1.3,0.4l0,0c0.4,0.3,0.8,0.2,1.2,0c0.5,0,0.5-0.2,0.3-0.6
							c-0.6-1.6-1.8-2.3-3.3-2.5c-0.5-0.1-1-0.3-1.5,0c-0.1,0-0.1,0.1-0.2,0.1C21,185.1,20.9,185.1,20.8,185.2z M22.1,183.3
							c-1.1,0.2-1.6,0.9-2.1,2c0.5-0.3,0.9-0.4,1.3-0.6c1,0,2,0.2,3,0.5c1.1,0.5,1.8,1.3,2.3,2.3c0.1,0.3,0.3,0.3,0.5,0.1
							c0.7-0.6,1-1.5,1.6-2.2c-1.4,0.2-2.8,0.3-4.1-0.4C23.8,184.3,22.8,184,22.1,183.3z M34.5,192.6c-0.1,0.2-0.4,0.3-0.2,0.5
							c1.2,0.2,2.2-0.1,3.2-0.6c0.7-0.3,1.3-0.9,2.1-1.2c1.9-0.9,3.3-2.2,4.4-3.9c0.3-0.5,0.6-1,0.5-1.6c-0.1-1-0.3-2-0.8-3
							c-0.4-0.7-2-1.5-2.8-1.3l0,0c-0.4-0.3-0.8-0.3-1.2-0.1c-0.5,0-1,0.2-1.5,0.5c-0.2,0.1-0.3,0.1-0.5,0.2
							c-1.2,0.2-2.3,0.8-3.4,1.5c-0.2,0.1-0.5,0.4-0.1,0.7c0.7,1,0.9,2.2,1.5,3.3c0.1,0.5,0.1,1,0.1,1.5c0,0.7-0.4,1.3-0.5,2
							C35,191.6,34.7,192.1,34.5,192.6z M14.4,191c-0.1,0.1-0.1,0.1,0,0.1c0.2,0.1,0.5-0.1,0.7-0.1c0.6-0.1,1.2-0.4,1.8-0.8
							c0.7-0.2,1.3-1,1.3-1.8c0-0.8,0.1-1.6,0.7-2.2c0.4-0.5,0.7-1,1-1.5c0.3-0.7,0.9-1.3,1.6-1.6c0.2-0.1,0.3-0.2,0.3-0.4
							c-0.3,0-0.6-0.1-1,0c-1.4,0.6-2.6,1.5-3.5,2.7c-0.8,1.1-1.5,2.3-2.2,3.5C14.7,189.6,14.4,190.3,14.4,191L14.4,191z
							 M40.5,175.5c-0.3-0.4-0.8-0.4-1.3-0.5c-0.1-0.1-0.3-0.1-0.5-0.1c-0.2,0-0.3,0-0.5-0.1c-0.7-0.1-1.1,0.1-1.4,0.8
							c-0.2,0.4-0.3,0.9-0.5,1.3c-0.5,1.4,0.3,2.6,1.2,3.4c0.2,0.2,0.4,0.1,0.7,0c0.2,0.1,0.3,0,0.4-0.1c0.4,0,0.7-0.1,1-0.2
							c0.3,0,0.5-0.1,0.8-0.1c0.5,0,1.4-1,1.4-1.6c0-0.8-0.4-1.5-0.9-2.1c-0.1-0.2-0.3-0.3-0.4-0.5
							C40.6,175.5,40.6,175.5,40.5,175.5z M28.6,183.8c0.1,0.3,0.2,0.5,0.4,0.7c0.1,0.1,0.2,0.4,0.3,0.1c0.3-0.3,0.6-0.5,0.9-0.8
							c0.7-0.4,1.5-0.3,2.2-0.2c1,0.2,1.5-0.1,1.9-1c0.5-1.1,1-2.2,2.6-1.8c0.2,0,0.3-0.1,0.5-0.3c-0.8-0.6-1.3-1.3-1.5-2.2
							c-0.1-0.2-0.1-0.3-0.4-0.1c-0.8,0.5-1.6,0.7-2.5,0.6c-1-0.1-1.9,0-2.9,0.1c-1.3,0.1-2.2,0.8-2.5,2c-0.3,1-0.1,1.9,0.8,2.7
							C28.5,183.6,28.6,183.7,28.6,183.8z M34.7,174.2c0.3,0.9,0.5,1.8,0.7,2.7c-0.1,0.3-0.2,0.7,0.1,0.7c0.3,0.1,0.5-0.3,0.6-0.6
							c0-0.1,0-0.1,0-0.2c0.1-0.5,0.3-1,0.4-1.4c0.2-0.5,0.5-0.9,1-1c1-0.2,2.1,0,2.9,0.5c0.9,0.6,1.4,1.4,1.7,2.4
							c0,0.1,0,0.3,0.2,0.4c0.2,0,0.3-0.1,0.3-0.3c0.8-1.1,1.8-1.5,3.1-1.3c0.8,0.1,1.5,0.4,2,1.1c0.4,0.6,0.7,0.1,1,0
							c0.3-0.1,0.6-0.3,0.4-0.8c-0.6-1.3-1.1-1.7-2.5-1.6c-1,0-1.9-0.2-2.9-0.2c-0.1,0-0.2-0.1-0.3-0.1c-0.1-0.1-0.3-0.1-0.5-0.1
							c-0.1,0-0.1,0-0.2-0.1c-0.9-0.4-1.5-1.1-2.1-1.7c-1.4-1.5-2.9-1.7-4.7-0.7C35.2,172.5,34.6,173.2,34.7,174.2z M38.5,181.5
							c0.4-0.1,0.8-0.4,1.2-0.4c1.3,0,2.5,0.4,3.6,0.9c0.7,0.7,0.9,1.6,1.2,2.5c0.4,1.2,0.4,2.4-0.5,3.5c-0.3,0.4-0.7,0.8-0.9,1.3
							c0.9-0.1,1.8-0.1,2.6-0.2c2-0.3,3.2-1.6,3.4-3.3c0.1-1.8-0.1-3.4-2-4.3c-0.3-0.3-0.8-0.5-1.2-0.6c-2.7-0.4-5.4-1.1-8.2,0
							c-0.5,0.2-1,0.4-1.3,0.8c-0.1,0.1-0.3,0.2-0.2,0.4c0.1,0.2,0.3,0,0.5-0.1C37.4,181.8,37.9,181.6,38.5,181.5z M42,179.9
							c0.3,0.1,0.6,0.2,1,0.1c0.2,0.1,0.5,0.1,0.7,0.2c1.3,0.2,2.6,0.3,3.8,0.9c0.2,0.1,0.3,0.2,0.5,0.3c0.3,0.2,0.5,0.4,0.8,0.6
							c0.2-0.8,0.1-1.5-0.3-2.2c0-0.1-0.1-0.2-0.1-0.2c0.1-0.4-0.3-0.8-0.4-1.1c-0.8-2.5-3.1-2.5-4.5-1.3c-0.7,0.6-1.3,1.5-1.8,2.3
							C41.4,179.9,41.6,180,42,179.9z M24.1,184.1L24.1,184.1c1.2,1.2,2.7,1.1,4.3,0.9c0.3,0,0.2-0.2,0.2-0.4
							c-0.1-0.2-0.2-0.3-0.3-0.5c-0.1-0.2-0.2-0.4-0.3-0.6c-1.7-2.1-0.1-4.9,1.9-5.1c1.1-0.2,2.2-0.1,3.3,0c0.1,0,0.3,0.1,0.4-0.1
							c0.1-0.2-0.1-0.3-0.3-0.4c-0.5-0.1-1-0.5-1.5-0.5c-1.4-0.2-2.8-0.4-3.8-1.8c-0.6,1.1-1.5,1.6-2.5,2.1
							c-0.9,0.4-1.7,0.8-2.5,1.4c-0.9,0.7-1.4,1.7-1.1,2.9c0.2,0.9,0.8,1.7,1.8,1.9c0,0,0,0.1,0.1,0.1C23.8,184,24,184.1,24.1,184.1
							z M15.4,196.9c0.1-0.6,0.4-1.2,0.8-1.7c0.3-0.3,0.6-0.7,0.8-1.1c0.8-1.3,1.7-2.6,1.4-4.2c0-0.2,0-0.5-0.3-0.2
							c-0.3,0.3-0.6,0.6-0.9,0.9c-0.4,0.3-1,0.4-1.4,0.6c-0.8,0.2-1.5,0.4-2.3,0.5c-1.7,0.2-2.6,2-2,3.6c0.4,0.9,1.2,1.5,1.8,2.1
							c0.7,0.7,1.6,0.9,2.6,1.2C15.7,198,15.5,197.4,15.4,196.9z M34.8,182.7c0.9-0.1,1.2-0.8,1.6-1.4c0.2-0.2,0.1-0.3-0.2-0.3
							c-0.2,0-0.4,0.1-0.6,0.3C35.3,181.7,35,182.2,34.8,182.7z"/>
					</g>
					<g>
						<path class="st7" d="M54.8,174.6c0.7,0.2,1.1,0.7,1.5,1.3c0.1,0.2,0.1,0.5,0.5,0.4c0,0.1,0.1,0.2,0.1,0.2
							c0.1,0.1,0.1,0.2,0.2,0.3c0,0.1,0.1,0.2,0.1,0.2c0,0.1-0.1,0.1-0.1,0.2c0.4,1.8-0.5,3.2-1.2,4.7c-0.9,2.1-2.7,3.3-4.9,3.9
							c-0.1,0-0.2,0-0.3,0c-1.4,0.1-1.2,0.2-1.1-1.2c0.7,0.4,1.4,0.6,2.1,0.1c0.5-0.3,1.1-0.5,1.6-0.8c0.7-0.5,1.2-1.1,1.6-1.9
							c0.1,0,0.1-0.1,0.2-0.1c0.5-0.1,0.7-0.6,0.5-1.3c0-0.2,0.1-0.4,0.1-0.6c0.1-0.3,0.6-0.3,0.5-0.7c0.2-0.1,0.3-0.2,0.2-0.4
							c0.2-0.3,0.3-0.6,0.1-0.9c0.1-0.3,0.1-0.5-0.1-0.7c-0.2-0.5-0.5-1-0.7-1.5c-0.1-0.2-0.2-0.3-0.4-0.3
							C55.3,175.2,55,174.9,54.8,174.6L54.8,174.6z"/>
					</g>
					<g>
						<path class="st6" d="M50.3,175c-0.1,0.4,0,0.8-0.3,1.1l0,0C49.9,175.7,50,175.3,50.3,175C50.2,175,50.2,175,50.3,175z"/>
					</g>
					<g>
						<path class="st6" d="M57,176.8c-0.1-0.1-0.1-0.2-0.2-0.3C57,176.6,57,176.7,57,176.8z"/>
					</g>
					<g>
						<path class="st8" d="M28.1,195.9c-1.3-0.9-1.6-2.2-1.5-3.7c0.1-1.1,0-2.2-0.8-3.2c-0.2-0.2,0-0.3,0.2-0.3
							c0.9-0.3,1.5-1,2.1-1.8c0.8-1.1,1.5-2.3,2.9-2.8c1.8-0.7,3.3,0.2,3.6,2.2c-0.4-0.2-0.4-0.6-0.6-0.9c-0.4-0.7-1.4-1.2-2.1-1.1
							c-0.4,0.1,0,0.8-0.5,0.7c-0.3,0-0.4-0.5-0.8-0.4c0,0,0,0-0.1,0c-0.4,0.3-0.9,0.6-1.1,1c-0.2,0.5-0.4,1-0.9,1.3
							c-0.1,0.1-0.2,0.2-0.1,0.4c0.1,0.2,0.3,0.1,0.4,0c0.3-0.2,0.5-0.5,0.8-0.8c0.1-0.2,0.3-0.4,0.5-0.3c0.4,0.1,0.6-0.1,0.7-0.3
							c0.2-0.3,0.5-0.4,0.8-0.4c0.6-0.2,1,0.3,1.5,0.6c0.5,0.2,0.6,0.5,0.2,0.9c-0.2,0.2-0.5,0.7-0.2,0.8c0.7,0.2,0.4,0.7,0.5,1.1
							c0,0.2,0.1,0.3,0.3,0.4c0.2,0,0.3-0.1,0.4-0.3c0.1-0.4,0.3-0.8,0.4-1.2c0.1,0,0.2,0,0.3,0.2c-0.3,0.4-0.1,0.8,0,1.2
							c0,0,0,0.1,0,0.1c-0.2,0.1-0.2,0.2-0.1,0.4c0.1,0.2,0,0.3-0.1,0.5c-0.5,0.3-0.6,0.7-0.9,1.2c-0.1-0.7-0.5-1-1.2-1
							c-0.1,0-0.2,0-0.3,0c-1-0.2-1-0.2-1,0.8c0,0.5,0.4,0.5,0.8,0.6c0.4,0.1,0.7,0.2,0.4,0.7c-0.4,0.5-0.2,0.8,0.3,1
							c-0.2,0.5-0.5,0.9-0.9,1.3c-0.2,0.2-0.4,0.3-0.4,0.6c-0.2,0.1-0.3,0.2-0.5,0.2c-0.1-0.1-0.2,0-0.2,0.1
							c-0.7,0.4-1.4,0.6-2.2,0.6c0,0,0,0-0.1-0.1c0,0,0,0.1,0,0.1c0,0-0.1,0-0.1,0.1C28.6,196,28.4,195.8,28.1,195.9z"/>
					</g>
					<g>
						<path class="st8" d="M34.1,184.3c-0.4-0.3-0.1-0.6,0.1-0.7c1.1-0.6,2.1-1.3,3.4-1.5c-0.1,0.3-0.3,0.3-0.5,0.4
							c-0.3,0.2-0.3,0.5-0.1,0.6c0.5,0.4,0.7,1,1,1.5c0.1,0.1,0.1,0.3,0.3,0.2c0.8-0.3,1-0.8,0.5-1.5c-0.1-0.1-0.2-0.2-0.1-0.4
							c0.1-0.5-0.2-0.8-0.6-1c0.5-0.3,1-0.4,1.5-0.5c0.4,0.5,0.8,0.2,1.2,0.1l0,0c0.1,0.2,0.3,0.3,0.4,0.3c0.4,0.1,0.6,0.3,0.8,0.7
							c-0.5,0-0.7,0.3-0.9,0.6c-0.2,0.3-0.1,0.6,0.3,0.6c0.5,0,0.7,0.3,0.9,0.7c0.1,0.2,0.2,0.4,0.4,0.1c0.2-0.4,0.3-0.8,0.5-1.3
							c0.3-0.1,0.3,0.2,0.4,0.4c0.1,0.5,0.2,0.9,0.4,1.4c0.5,1,0.1,1.9-0.8,2.3c-0.3,0.1-0.6,0.3-0.8,0.5c-0.7,0.5-1.7,0.6-2.3,1.4
							c0,0-0.1,0-0.1,0c-0.7,0.3-1.4,0.5-1.7,1.2c-0.1,0.3-0.4,0.5-0.8,0.5c0-0.2,0.4-0.3,0.1-0.6c-0.2-0.2-0.4,0-0.6,0
							c-0.6,0-1.1,0.6-1.7,0.5c0.1-0.7,0.5-1.3,0.5-2c0-0.5,0-1-0.1-1.5c0.2-0.1,0.5-0.2,0.5-0.5c0.1-0.5,0.2-1,0.6-1.4
							c0.1-0.2,0.1-0.3,0-0.5C36.4,184.1,35.3,183.7,34.1,184.3z M39.7,182c-0.2-0.3-0.5,0-0.7,0c-0.2,0-0.2,0.2-0.1,0.3
							c0.1,0.3,0.4,0.3,0.6,0.2C39.7,182.5,39.7,182.3,39.7,182z"/>
					</g>
					<g>
						<path class="st8" d="M54.9,182c-0.4,0.8-0.9,1.4-1.6,1.9c-0.5,0.3-1.1,0.5-1.6,0.8c-0.8,0.4-1.4,0.2-2.1-0.1
							c-0.2-1-0.5-1.9-0.3-2.9c0.1-0.7,0-1.4-0.3-2c-0.1-0.3-0.3-0.5-0.4-0.8c-0.3-0.8-0.3-0.8,0.4-1.2c0.3-0.2,0.7-0.4,1-0.6
							c0,0,0,0,0,0c0,0,0,0-0.1,0c0.4-0.7,0.8-1.4,1.5-1.8c0.2-0.1,0.1-0.4,0.4-0.5c0.7-0.4,1.4-0.5,2.2-0.3c0,0.1,0.1,0.2,0.1,0.2
							c-1.1,0-2,0.3-2.6,1.3c-0.1,0.2-0.2,0.3-0.4,0.4c-0.2,0.2-0.7,0.2-0.4,0.6c0.2,0.3,0.6-0.1,0.9-0.2c0.2-0.1,0.2-0.3,0.3-0.4
							c0.1-0.2,0.2-0.3,0.5-0.2c0.3,0.1,0.6,0,0.8-0.2c0.3-0.3,0.7-0.4,1.1-0.2c0.4,0.1,0.7,0.3,1.1,0.5c0.4,0.2,0.4,0.4,0.1,0.7
							c-0.3,0.3-0.7,0.6,0,1c0.2,0.1,0.1,0.4,0.1,0.5c-0.1,0.5,0.2,0.7,0.7,0.6l0,0c0,0.1,0.1,0.2,0.1,0.2c0,0.4-0.4,0.4-0.5,0.7
							c-0.5-0.4-1-0.5-1.6-0.7c-0.3-0.1-0.4,0.1-0.6,0.3c-0.3,0.6-0.2,0.8,0.5,1.1c0.4,0.2,0.6,0.6,0.4,0.9
							c-0.1,0.1-0.4,0.2-0.2,0.4C54.5,182.2,54.7,182.1,54.9,182z M51.8,182.4c-0.5,0.1-0.7,0.4-0.5,0.9c0.1,0.5,0.5,0.8,1,0.8
							c0.2,0,0.4-0.1,0.5-0.3c0.1-0.2,0.1-0.4-0.1-0.5c-0.2-0.1-0.3-0.2-0.2-0.5c0.1-0.2,0.2-0.4,0-0.6
							C52.1,182.1,51.9,182.4,51.8,182.4z"/>
					</g>
					<g>
						<path class="st8" d="M24.7,188.2c-0.4-0.1-0.9-0.3-1.3-0.4c-0.7-0.3-1.3-0.1-1.8,0.4c-1.5,1.6-1.6,3.9-0.1,5.4
							c1,1,2,2.2,3.5,2.5c0.2,0,0.3,0.2,0.4,0.3c-0.3,0.3-0.7,0.4-1,0.4c-0.7,0-1.3,0.3-1.8,0.8c-0.6,0.5-1.3,0.9-2.1,0.8
							c-0.7-0.1-1.2-0.6-1.9-0.8c-0.3-0.1-0.4-0.3-0.5-0.5c-0.5-0.6,0-1.4-0.3-2c-0.2-0.5-0.2-1.1,0.2-1.5c0.1-0.1,0.2-0.3,0.1-0.5
							c0.1-0.2,0.1-0.3,0.2-0.5c0.2-0.1,0.3-0.2,0.2-0.4l0,0c0.5-0.3,0.6-0.8,0.5-1.2c-0.2-0.6-0.1-1.1,0-1.6
							c0.1-0.4,0.1-0.9-0.1-1.3c-0.1-0.4-0.1-0.7,0.3-1c0.1,0.8,0.2,1.7,0.1,2.5c0,0.2-0.1,0.5,0.2,0.5c0.2,0,0.5,0.3,0.6,0
							c0.1-0.2,0.2-0.4,0-0.6c-0.3-0.4-0.2-1,0.3-1.3c0.2-0.1,0.3-0.3,0.2-0.5c-0.1-0.4,0.1-0.8,0.3-0.8c0.4-0.2,0.7-0.5,1-0.6
							c0.4-0.1,0.9-0.4,1.1,0.1c0.1,0.3,0.4,0.2,0.5,0.4c-0.1,0.2-0.5,0.2-0.4,0.6c0,0.1,0.1,0.2,0.2,0.2
							C24.2,187.2,24.4,187.7,24.7,188.2z"/>
					</g>
					<g>
						<path class="st8" d="M23.7,183.8c-1-0.2-1.6-0.9-1.8-1.9c-0.2-1.1,0.2-2.1,1.1-2.9c0.8-0.6,1.6-1,2.5-1.4c1-0.4,1.9-1,2.5-2.1
							c1,1.3,2.4,1.6,3.8,1.8c0.5,0.1,1,0.4,1.5,0.5c0.1,0,0.4,0.2,0.3,0.4c-0.1,0.2-0.3,0.1-0.4,0.1c-1.1-0.1-2.2-0.1-3.3,0
							c-2,0.3-3.7,3-1.9,5.1c-0.2,0.1-0.3,0.2-0.2,0.4c0.1,0.2,0.3,0.2,0.5,0.2c0.2,0.1,0.3,0.3,0.3,0.5c0.1,0.2,0.1,0.3-0.2,0.4
							c-1.5,0.2-3,0.3-4.3-0.9c0.1,0,0.3-0.1,0.3,0c0.5,0.4,1.2,0.3,1.8,0.2c0.2,0,0.4,0,0.4-0.3c0-0.2-0.1-0.3-0.2-0.3
							c-0.5-0.1-0.9-0.2-1.2-0.7c-0.1-0.1-0.3-0.1-0.4,0c-0.9,0.2-1,0.2-1.3-0.7c-0.1-0.3-0.1-0.5-0.2-0.8c0-0.3,0.1-0.6,0.4-0.8
							c0.9-0.6,1.3-1.7,2.2-2.2c0.1-0.1,0.1-0.2,0-0.3c-0.1-0.2-0.3-0.1-0.4,0c-0.2,0.1-0.4,0.3-0.7,0.4c-0.8,0.2-1.5,0.7-2.1,1.2
							c-0.2,0.2-0.2,0.4-0.1,0.6c0.1,0.1,0.2,0.2,0.1,0.3c-0.1,0.1-0.2,0.1-0.3,0c-0.2-0.1-0.4-0.1-0.4,0.1c0.1,0.6-0.1,1.2,0.2,1.8
							C22.8,183,23.4,183.2,23.7,183.8z"/>
					</g>
					<g>
						<path class="st8" d="M28.5,183.5c-0.8-0.7-1.1-1.7-0.8-2.7c0.4-1.2,1.3-1.9,2.5-2c1-0.1,1.9-0.1,2.9-0.1
							c0.9,0.1,1.8,0,2.5-0.6c0.2-0.2,0.3-0.1,0.4,0.1c0.2,0.9,0.7,1.7,1.5,2.2c-0.1,0.2-0.3,0.3-0.5,0.3c-1.5-0.4-2.1,0.7-2.6,1.8
							c-0.4,1-0.9,1.2-1.9,1c-0.7-0.1-1.5-0.1-2.2,0.2c-0.1-0.5-0.3-0.8-0.9-0.7c-0.3,0.1-0.4-0.2-0.5-0.4c-0.2-0.6,0.3-1.8,0.8-2
							c0.5-0.3,1.2-0.3,1.6-0.8c0.1-0.1,0.3-0.2,0.5,0c0.2,0.1,0.5,0,0.7,0c0.3,0,0.4-0.2,0.4-0.5c0-0.3-0.3-0.1-0.5-0.1
							c-0.4,0-0.7,0.3-1.1,0.1c-0.6-0.4-1.3,0-1.9,0.1c-0.2,0-0.4,0.2-0.3,0.4c0.1,0.2,0.1,0.4-0.1,0.4c-0.2,0.1-0.2-0.1-0.3-0.2
							c-0.1-0.1-0.3-0.2-0.4,0c-0.1,0.7-0.8,1.2-0.5,2C28.1,182.4,28.5,182.9,28.5,183.5z"/>
					</g>
					<g>
						<path class="st8" d="M43.4,171.1c0.1-0.1,0.1-0.1,0.2-0.2c0.4-0.4,1-0.3,1.4-0.6c1.1-0.8,1.9-0.5,2.9,0.3
							c0.8,0.7,0.9,1.5,0.9,2.3c0,0.7-0.3,1.5,0.1,2.2c-0.8-0.8-1.8-0.6-2.8-0.7c-1.4,0-2.7-0.1-4-0.9c-0.5-0.3-0.4-0.5-0.1-0.8
							c0.5-0.4,1-1,1.3-1.5C43.3,171.2,43.4,171.2,43.4,171.1z"/>
					</g>
					<g>
						<path class="st8" d="M47.2,181.4c1.9,0.9,2.1,2.5,2,4.3c-0.1,1.8-1.4,3-3.4,3.3c-0.9,0.1-1.7,0.1-2.6,0.2
							c0.2-0.6,0.6-0.9,0.9-1.3c0.9-1.1,0.9-2.2,0.5-3.5c-0.3-0.9-0.6-1.8-1.2-2.5c0.4-0.2,0.7-0.3,1.2-0.3
							C45.4,181.8,46.3,181.3,47.2,181.4z M48.5,185.6c0.4-0.3,0.3-0.8,0.3-1.2c-0.1-0.8-0.7-1.3-1-1.9c-0.2-0.4-0.6-0.6-1.2-0.5
							c-0.5,0.1-1,0.3-1.6,0.1c-0.2-0.1-0.6,0-0.6,0.2c-0.1,0.3,0.3,0.3,0.5,0.3c0.6,0.2,1.4-0.1,1.5,0.9c0,0,0.1,0.1,0.1,0.1
							C47.6,183.8,48,184.8,48.5,185.6c-0.3,0.1-0.5,0.3-0.5,0.7c0,0.4-0.2,0.5-0.6,0.5c-0.2,0-0.5,0-0.7,0c-0.2,0-0.4,0-0.3,0.2
							c0.2,0.7-0.4,0.7-0.7,0.9c-0.1,0.1-0.3,0.1-0.3,0.3c0,0.2,0.2,0.2,0.3,0.3c0.8,0.2,2.2-0.4,2.5-1.2
							C48.5,186.7,48.9,186.1,48.5,185.6z"/>
					</g>
					<g>
						<path class="st7" d="M18.1,193.1c0.1,0.2,0.1,0.4-0.1,0.5c-0.5,0.4-0.4,1-0.2,1.5c0.2,0.7-0.3,1.4,0.3,2
							c0.2,0.2,0.3,0.5,0.5,0.5c0.7,0.2,1.2,0.7,1.9,0.8c0.8,0.1,1.5-0.4,2.1-0.8c0.6-0.4,1.1-0.8,1.8-0.8c0.4,0,0.8-0.1,1-0.4
							c0.3-0.2,0.8-0.2,1,0c0.2,0.2-0.2,0.5-0.3,0.7c-0.5,0.6-1.2,1-1.8,1.5c-1.6,1.3-3.5,1.4-5.5,1.2c-1.6-0.2-2.7-1.2-3-2.9
							c-0.1-0.5,0-0.9,0.3-1.2C16.9,195.1,17.4,194,18.1,193.1z"/>
					</g>
					<g>
						<path class="st7" d="M48.8,175.2c-0.4-0.7-0.1-1.5-0.1-2.2c0-0.8,0-1.6-0.9-2.3c-1-0.9-1.8-1.1-2.9-0.3
							c-0.4,0.3-1,0.2-1.4,0.6c0.3-0.9,0.7-1.8,1.2-2.5c0.5-0.7,2.5-0.8,3.2-0.1c1.7,1.6,2.5,3.5,2.2,5.8c0,0.3-0.2,0.5-0.1,0.8
							c-0.2,0.3-0.2,0.7-0.2,1.1c-0.2,0.2-0.4,0.4-0.6-0.1C49.2,175.7,49,175.4,48.8,175.2z"/>
					</g>
					<g>
						<path class="st8" d="M15.8,191.2c0.5-0.2,1-0.3,1.4-0.6c0.6,0.1,0.8-0.4,1.1-0.7c0.3,1.7-0.6,2.9-1.4,4.2
							c-0.2,0.4-0.5,0.7-0.8,1.1c-0.4,0.5-0.7,1-0.8,1.7c-0.6-0.2-1.2-0.4-1.4-1c-0.2-0.4-0.3-0.8-0.5-1.2c-0.3-0.7-0.1-1.4,0.6-1.8
							c0.2-0.1,0.4-0.2,0.4-0.5c0.1-0.6,0.6-0.8,1.1-1C15.7,191.4,15.8,191.5,15.8,191.2z"/>
					</g>
					<g>
						<path class="st8" d="M42.9,174.4c0.1,0,0.1,0,0.2,0.1c0.1,0.2,0.3,0.2,0.5,0.1c0.1,0,0.2,0.1,0.3,0.1c0.1,0.2,0.4,0.3,0.6,0.3
							c0.7,0.1,1.2,0.5,1.4,1.2c-1.3-0.1-2.3,0.3-3.1,1.3c-0.1,0.1-0.2,0.3-0.3,0.3c-0.2,0-0.1-0.2-0.2-0.4c-0.3-1-0.9-1.9-1.7-2.4
							c-0.9-0.6-1.9-0.7-2.9-0.5c-0.5,0.1-0.8,0.5-1,1c-0.2,0.5-0.3,0.9-0.4,1.4c0,0.1,0,0.1,0,0.2c-0.1,0.3-0.3,0.7-0.6,0.6
							c-0.3-0.1-0.1-0.5-0.1-0.7c0.4,0,0.5-0.2,0.5-0.6c0-0.2-0.3-0.5,0-0.7c0.7-0.5,0.2-0.7-0.2-0.9c-0.2-0.1-0.3-0.3-0.2-0.5
							c0.2-0.6,1.6-1.3,2.1-1c0.5,0.2,0.8,0.6,1.4,0.3c0.1-0.1,0.4,0.1,0.5,0.3c0.2,0.3,0.5,0.4,0.7,0.4c0.2,0.1,0.5,0.2,0.6-0.1
							c0.1-0.3-0.2-0.3-0.3-0.4c-0.1-0.1-0.1-0.2-0.2-0.3c0.5-0.2,0.8,0.1,1,0.5C41.7,174.4,42.3,174.6,42.9,174.4z"/>
					</g>
					<g>
						<path class="st7" d="M42.1,182.6c-0.1-0.4-0.4-0.6-0.8-0.7c-0.2-0.1-0.4-0.1-0.4-0.3c0.8-0.2,2.4,0.6,2.8,1.3
							c0.5,0.9,0.7,1.9,0.8,3c0.1,0.6-0.2,1.1-0.5,1.6c-1.1,1.7-2.5,3-4.4,3.9c-0.7,0.3-1.3,0.9-2.1,1.2c-1,0.5-2.1,0.8-3.2,0.6
							c0.3-0.1,0.5-0.2,0.8-0.2c0.1,0,0.2-0.1,0.2-0.1c0.9,0,1.5-0.5,1.8-1.6c0.1,0,0.2-0.1,0.2-0.1c0.4,0,0.7-0.2,0.8-0.5
							c0.3-0.8,1.1-1,1.7-1.2c0,0,0.1,0,0.1,0c0.6-0.7,1.6-0.9,2.3-1.4c0.3-0.2,0.5-0.4,0.8-0.5c1-0.5,1.3-1.4,0.8-2.3
							c-0.2-0.4-0.3-0.9-0.4-1.4c-0.1-0.2-0.1-0.4-0.4-0.4C42.9,183,42.6,182.7,42.1,182.6z"/>
					</g>
					<g>
						<path class="st7" d="M15.8,191.2c0.1,0.3-0.1,0.3-0.3,0.3c-0.5,0.1-1,0.4-1.1,1c-0.1,0.2-0.2,0.3-0.4,0.5
							c-0.7,0.4-0.9,1.1-0.6,1.8c0.2,0.4,0.3,0.8,0.5,1.2c0.2,0.6,0.8,0.8,1.4,1c0.2,0.5,0.3,1.1,0.6,1.8c-1-0.3-1.9-0.6-2.6-1.2
							c-0.7-0.7-1.5-1.2-1.8-2.1c-0.7-1.6,0.3-3.4,2-3.6C14.3,191.6,15,191.4,15.8,191.2z"/>
					</g>
					<g>
						<path class="st8" d="M26.2,192.5c0,0.1,0.1,0.1,0.1,0.2c-0.6-0.1-1.1,0.7-1.8,0c-0.2-0.2-0.5,0-0.7,0.2
							c-0.2,0.2,0.1,0.3,0.2,0.5c0.2,0.3,0.4,0.6,0.6,0.9c0.2,0.3,0.6,0.6,0.3,0.9c-0.3,0.2-0.7-0.1-1-0.3c-0.1-0.1-0.2-0.2-0.2-0.3
							c-0.2-0.5-0.6-0.5-1-0.3c-0.3-0.5-1-0.6-1.2-1.3c0.2-0.1,0.3-0.2,0.2-0.4c-0.2-0.6,0-1.1,0.2-1.7c0.1-0.3,0.3-0.7,0.1-1
							c-0.1-0.2,0-0.3,0.2-0.4c0.4-0.3,0.8-0.2,1.3,0c0.9,0.2,0.9,0.2,0.7,1.1c-0.1,0.2-0.1,0.5,0.2,0.5c0.7-0.1,0.8,0.5,1,0.9
							c0.2,0.4,0.5,0.5,0.7,0C26.1,192.1,26.2,192.3,26.2,192.5z"/>
					</g>
					<g>
						<path class="st8" d="M32.9,172.5c0.1,0,0.2,0,0.3,0.1c0.4,1,1.4,1.7,1.5,2.9c-0.3,0-0.2,0.3-0.2,0.4c0,0.2,0,0.4-0.2,0.5
							c-0.2,0.1-0.3-0.1-0.4-0.2c-0.4-0.4-0.8-0.9-1.2-1.3c-0.1-0.2-0.3-0.3-0.5-0.2c-0.2,0.1-0.3,0.4-0.2,0.6
							c0.2,0.4,0.2,0.7-0.1,1.2c-0.3,0.5-0.4,0.4-0.7,0.2c0.3-0.4,0-0.6-0.3-0.9c-0.2-0.2-0.7-0.3-0.5-0.7c0.3-0.7-0.2-0.6-0.5-0.5
							c-0.9,0.1-1.1-0.2-0.9-1c0.1-0.2,0-0.5,0.4-0.2c0.4,0.3,1,0,1-0.5c0-0.4,0.1-0.4,0.4-0.3C31.5,172.8,32.2,172.7,32.9,172.5z"
							/>
					</g>
					<g>
						<path class="st8" d="M39.8,180c-0.3,0.2-0.7,0.2-1,0.2c-0.1-0.3-0.1-0.7-0.4-1c-0.1-0.1-0.2-0.4,0-0.7
							c0.4-0.5,0.1-0.6-0.3-0.6c-0.3-0.1-0.7-0.2-0.5-0.6c0.2-0.5,0.4-1.1,0.8-1.5c0.2-0.2,0.4-0.3,0.6-0.1c0.6,0.8,1.8,0.7,2.5,1.4
							c0-0.5-0.4-0.7-0.2-1.1c0.5,0.6,0.9,1.3,0.9,2.1c0,0.6-0.9,1.6-1.4,1.6c0-0.4,0-0.8-0.5-0.7C39.6,179.3,39.6,179.6,39.8,180z"
							/>
					</g>
					<g>
						<path class="st7" d="M14.4,191c0-0.7,0.3-1.4,0.7-2c0.7-1.2,1.4-2.4,2.2-3.5c0.9-1.2,2.1-2.1,3.5-2.7c0.3-0.1,0.6,0,1,0
							c0,0.2-0.1,0.3-0.3,0.4c-0.5-0.2-1.3,0-1.4,0.4c-0.2,0.9-1.3,1.4-1.3,2.4c-1,0.6-0.9,1.9-1.9,2.6
							C15.9,189.3,15,190.1,14.4,191z"/>
					</g>
					<g>
						<path class="st5" d="M26.1,192c-0.3,0.5-0.5,0.4-0.7,0c-0.2-0.4-0.3-1-1-0.9c-0.2,0-0.3-0.3-0.2-0.5c0.2-0.9,0.2-0.8-0.7-1.1
							c-0.4-0.1-0.9-0.3-1.3,0c-0.2,0.1-0.3,0.2-0.2,0.4c0.2,0.4,0.1,0.7-0.1,1c-0.2,0.5-0.5,1.1-0.2,1.7c0.1,0.2-0.1,0.3-0.2,0.4
							c-0.3-0.5-0.5-1.1-0.7-1.7c0-0.1,0-0.1,0-0.2c-0.1-0.2-0.1-0.3-0.1-0.5c0-0.1,0-0.1,0-0.2c0.2-0.7,0.4-1.3,0.9-1.8
							c0.6-0.4,1.2-0.5,1.9-0.1c0.2,0.1,0.5,0.2,0.7,0l0,0c0.1,0.1,0.2,0.2,0.3,0.1l0,0c0.1,0.2,0.2,0.3,0.4,0.2c0,0,0,0.1,0.1,0.1
							c0.5,0.7,0.9,1.4,0.8,2.3C25.9,191.5,26,191.7,26.1,192z"/>
					</g>
					<g>
						<path class="st5" d="M23.7,183.8c-0.3-0.6-0.9-0.7-1.2-1.3c-0.3-0.6-0.2-1.2-0.2-1.8c0-0.2,0.2-0.2,0.4-0.1
							c0.1,0.1,0.2,0.1,0.3,0c0.1-0.1,0-0.2-0.1-0.3c-0.2-0.2-0.2-0.4,0.1-0.6c0.6-0.6,1.3-1,2.1-1.2c0.3-0.1,0.4-0.3,0.7-0.4
							c0.1-0.1,0.3-0.1,0.4,0c0.1,0.1,0.1,0.3,0,0.3c-1,0.5-1.3,1.7-2.2,2.2c-0.3,0.2-0.4,0.5-0.4,0.8c0,0.3,0.1,0.6,0.2,0.8
							c0.3,0.9,0.3,0.9,1.3,0.7c0.1,0,0.4-0.1,0.4,0c0.2,0.5,0.7,0.7,1.2,0.7c0.2,0,0.3,0.2,0.2,0.3c0,0.2-0.2,0.3-0.4,0.3
							c-0.6,0-1.2,0.2-1.8-0.2c-0.1,0-0.2,0-0.3,0c0,0,0,0,0,0C24.1,183.9,24,183.8,23.7,183.8C23.7,183.8,23.7,183.8,23.7,183.8z"
							/>
					</g>
					<g>
						<path class="st5" d="M48.4,179.7c0,0.1,0.1,0.2,0.1,0.2c-0.2,0.1-0.2,0.3-0.2,0.5c0.1,0.4-0.1,0.8-0.4,1.1
							c-0.2-0.1-0.3-0.2-0.5-0.3c-0.2-0.2,0-0.7-0.3-0.7c-0.7,0-0.4-0.4-0.2-0.6c0.2-0.3,0.5-0.7,0.3-1c-0.4-0.4-0.9-0.7-1.4-0.7
							c-0.3,0-0.8-0.2-1,0.3c-0.2,0.4-0.5,0.5-0.9,0.6c-0.6,0.1-0.8,0.6-0.9,1.1c-0.3,0-0.7,0-1-0.1c0.5-0.6,0.9-1.3,1.3-2
							c0.5-0.8,1.4-1.2,2.4-1.2c1,0,1.5,0.7,1.9,1.4C47.9,178.7,47.9,179.3,48.4,179.7z"/>
					</g>
					<g>
						<path class="st5" d="M24.7,188.2c-0.2-0.5-0.4-1-1.2-0.8c-0.1,0-0.2,0-0.2-0.2c-0.1-0.3,0.3-0.3,0.4-0.6
							c-0.1-0.2-0.4-0.1-0.5-0.4c-0.2-0.5-0.7-0.2-1.1-0.1c-0.4,0.1-0.7,0.4-1,0.6c-0.2,0.1-0.4,0.5-0.3,0.8
							c0.1,0.2-0.1,0.4-0.2,0.5c-0.5,0.3-0.6,0.8-0.3,1.3c0.2,0.3,0.1,0.5,0,0.6c-0.2,0.3-0.4,0-0.6,0c-0.3,0-0.2-0.3-0.2-0.5
							c0.1-0.8,0-1.7-0.1-2.5l0,0c0.3-0.3,0.8-0.4,0.7-1c0.1,0,0.2-0.1,0.2-0.1c0.3,0.1,0.2-0.1,0.2-0.2c0.1-0.1,0.2-0.1,0.3-0.2
							c0.1,0.1,0.2,0,0.2-0.1c0.1-0.1,0.2-0.1,0.2-0.2c0.1,0,0.1-0.1,0.2-0.1c0.7,0.3,1.6,0.2,2.3,0.5c0.4,0.2,0.9,0.3,1.2,0.7
							c-0.1,0.2,0.1,0.3,0,0.4C24.8,187.3,25.3,187.8,24.7,188.2L24.7,188.2z"/>
					</g>
					<g>
						<path class="st5" d="M34.9,187.7c-0.1,0.4-0.3,0.8-0.4,1.2c-0.1,0.2-0.1,0.3-0.4,0.3c-0.2,0-0.3-0.2-0.3-0.4
							c-0.1-0.4,0.2-0.9-0.5-1.1c-0.2-0.1,0-0.6,0.2-0.8c0.5-0.4,0.3-0.7-0.2-0.9c-0.5-0.2-0.9-0.7-1.5-0.6
							c-0.3,0.1-0.6,0.2-0.8,0.4c-0.2,0.2-0.4,0.5-0.7,0.3c-0.2-0.1-0.4,0.2-0.5,0.3c-0.2,0.3-0.5,0.6-0.8,0.8
							c-0.1,0.1-0.3,0.1-0.4,0c-0.1-0.2-0.1-0.3,0.1-0.4c0.4-0.4,0.7-0.8,0.9-1.3c0.2-0.5,0.7-0.7,1.1-1c0,0,0,0,0.1,0
							c0.4-0.2,0.5,0.3,0.8,0.4c0.5,0.1,0-0.6,0.5-0.7c0.6-0.1,1.7,0.4,2.1,1.1c0.2,0.3,0.2,0.7,0.6,0.9c0.1,0.2,0.2,0.4,0.3,0.6
							c-0.2,0.2-0.1,0.3,0,0.5C34.7,187.4,34.8,187.6,34.9,187.7z"/>
					</g>
					<g>
						<path class="st5" d="M32.9,172.5c-0.7,0.2-1.4,0.3-2.1,0.1c-0.3-0.1-0.4-0.1-0.4,0.3c0,0.5-0.6,0.9-1,0.5
							c-0.4-0.3-0.3,0-0.4,0.2c-0.2,0.9,0,1.1,0.9,1c0.3,0,0.8-0.1,0.5,0.5c-0.2,0.4,0.3,0.5,0.5,0.7c0.3,0.2,0.6,0.4,0.3,0.9
							c-1.2-0.4-2.7-0.5-3.2-2.1c-0.1-0.3,0-0.5,0-1.1c0-0.1,0,0,0-0.3c0-0.3,0-0.1,0-0.3c0-0.1-0.1-0.1,0-0.2c0.2-0.1,0,0,0.2-0.1
							c-0.1-0.1,0.1-0.2,0.1-0.4c0-0.1-0.1-0.2-0.1-0.3c0.1-0.1,0.3-0.2,0.4-0.2c0.4,0.4,0.6,0.9,0.8,1.3c0.1,0.2,0.2,0.4,0.5,0.2
							c0.3-0.1,0.2-0.3,0.1-0.5c-0.2-0.3-0.4-0.7-0.5-1c0,0,0-0.1,0-0.1c0.4-0.4,0.9-0.3,1.4-0.3c0.3,0,0.6,0.2,0.9,0.2
							c0,0.1,0,0.2,0,0.2c-0.2,0.2-0.7,0-0.6,0.4c0.1,0.5,0.5,0.1,0.7,0.1C32.2,172.2,32.6,171.9,32.9,172.5z"/>
					</g>
					<g>
						<path class="st7" d="M47.2,181.4c-0.9-0.1-1.8,0.3-2.7,0.3c-0.4,0-0.8,0.1-1.2,0.3c-1.2-0.6-2.3-1-3.6-0.9
							c-0.5,0-0.8,0.3-1.2,0.4c-0.8-0.5-1.1-0.4-1.6,0.5c-0.2,0-0.3,0.3-0.5,0.1c-0.1-0.2,0.1-0.3,0.2-0.4c0.3-0.5,0.8-0.6,1.3-0.8
							c2.7-1,5.5-0.4,8.2,0C46.4,180.9,46.9,181.1,47.2,181.4z"/>
					</g>
					<g>
						<path class="st5" d="M40.4,173.3c0.1,0.1,0.1,0.2,0.2,0.3c0.1,0.1,0.4,0.1,0.3,0.4c-0.1,0.3-0.4,0.2-0.6,0.1
							c-0.3-0.1-0.6-0.1-0.7-0.4c-0.1-0.2-0.4-0.4-0.5-0.3c-0.6,0.3-0.9,0-1.4-0.3c-0.5-0.3-1.9,0.5-2.1,1c-0.1,0.3,0,0.4,0.2,0.5
							c0.3,0.3,0.8,0.5,0.2,0.9c-0.3,0.2,0,0.5,0,0.7c0,0.4-0.1,0.6-0.5,0.6c-0.2-0.9-0.4-1.8-0.7-2.7c0.4-0.3,0.6-0.8,0.8-1.3
							c0.6-1.2,2.4-1.3,3.6-1c-0.1,0.1-0.2,0.2-0.1,0.3c0.1,0.2,0.3,0.2,0.5,0.1c0.1,0.2,0.3,0.3,0.4,0.5c0.1,0.2,0.2,0.3,0.4,0.2
							C40.3,173.1,40.4,173.2,40.4,173.3z"/>
					</g>
					<g>
						<path class="st5" d="M28.5,183.5c0.1-0.6-0.3-1-0.5-1.5c-0.3-0.8,0.3-1.3,0.5-2c0-0.2,0.3-0.1,0.4,0c0.1,0.1,0.2,0.3,0.3,0.2
							c0.2-0.1,0.2-0.3,0.1-0.4c-0.1-0.3,0.1-0.4,0.3-0.4c0.6-0.1,1.2-0.5,1.9-0.1c0.4,0.2,0.7-0.1,1.1-0.1c0.2,0,0.4-0.1,0.5,0.1
							c0,0.3-0.1,0.5-0.4,0.5c-0.2,0-0.5,0.1-0.7,0c-0.2-0.1-0.4-0.1-0.5,0c-0.4,0.5-1.1,0.5-1.6,0.8c-0.6,0.3-1,1.5-0.8,2
							c0.1,0.2,0.2,0.5,0.5,0.4c0.6-0.1,0.8,0.2,0.9,0.7c-0.3,0.3-0.6,0.5-0.9,0.8c-0.3-0.3-0.3-0.7-0.8-0.8
							C28.6,183.7,28.5,183.6,28.5,183.5z"/>
					</g>
					<g>
						<path class="st5" d="M41.1,176.2c-0.1,0.4,0.2,0.6,0.2,1.1c-0.7-0.8-1.9-0.6-2.5-1.4c-0.2-0.2-0.4-0.1-0.6,0.1
							c-0.4,0.4-0.6,1-0.8,1.5c-0.1,0.4,0.2,0.5,0.5,0.6c0.4,0.1,0.7,0.2,0.3,0.6c-0.2,0.2-0.1,0.5,0,0.7c0.3,0.3,0.3,0.7,0.4,1
							c-0.1,0.1-0.3,0.1-0.4,0.1c-0.2-0.5-0.7-0.7-1-1c-0.3-0.5-1-1-0.7-1.5c0.4-0.6,0.5-1.1,0.5-1.8c0-0.7,0.7-0.8,1.2-1.1
							c0.2,0,0.3,0,0.5,0.1c0.1,0.3,0.3,0.2,0.5,0.1c0.5,0.1,1,0.1,1.3,0.5c-0.1,0.3,0,0.2,0.2,0.2C40.8,175.8,41,176,41.1,176.2z"
							/>
					</g>
					<g>
						<path class="st7" d="M22.7,194.3c0.4-0.2,0.8-0.2,1,0.3c0.1,0.1,0.1,0.2,0.2,0.3c0.3,0.2,0.7,0.5,1,0.3
							c0.3-0.3-0.1-0.6-0.3-0.9c-0.2-0.3-0.4-0.6-0.6-0.9c-0.1-0.1-0.4-0.3-0.2-0.5c0.2-0.2,0.5-0.4,0.7-0.2c0.6,0.6,1.2-0.1,1.8,0
							c0.1,1.1,0.2,2.3,1.3,3c0.2,0.1,0.3,0.3,0.5,0.2c0.3-0.1,0.5,0.1,0.7,0.3c0.1,0.2,0,0.2-0.2,0.2c-1.6-0.1-3.3-0.3-4.8-1.1
							C23.4,195,23,194.8,22.7,194.3z"/>
					</g>
					<g>
						<path class="st7" d="M28,174.6c0.5,1.6,2,1.6,3.2,2.1c0.3,0.3,0.4,0.3,0.7-0.2c0.3-0.5,0.3-0.7,0.1-1.2
							c-0.1-0.2,0-0.4,0.2-0.6c0.2-0.1,0.4,0,0.5,0.2c0.4,0.4,0.8,0.8,1.2,1.3c0.1,0.1,0.2,0.3,0.4,0.2c0.2-0.1,0.2-0.3,0.2-0.5
							c0-0.2-0.1-0.4,0.2-0.4c0.2,0.8,0.3,1.6,0.2,2.4c-0.1,0.4-0.6,0.7-0.8,0.4c-0.9-1-2.2-1.1-3.4-1.3c-0.9-0.2-1.6-0.6-2.2-1.2
							C28.1,175.4,27.9,175,28,174.6z"/>
					</g>
					<g>
						<path class="st8" d="M43,180.1c0.1-0.5,0.3-0.9,0.9-1.1c0.3-0.1,0.7-0.2,0.9-0.6c0.2-0.5,0.7-0.3,1-0.3c0.5,0,1.1,0.3,1.4,0.7
							c0.3,0.3-0.1,0.7-0.3,1c-0.2,0.3-0.5,0.6,0.2,0.6c0.4,0,0.1,0.5,0.3,0.7c-1.2-0.7-2.5-0.8-3.8-0.9
							C43.5,180.2,43.2,180.1,43,180.1z"/>
					</g>
					<g>
						<path class="st7" d="M45.9,176.2c-0.2-0.7-0.7-1.1-1.4-1.2c-0.2,0-0.5-0.1-0.6-0.3c1,0,1.9,0.3,2.9,0.2
							c1.4-0.1,1.9,0.3,2.5,1.6c0.2,0.5,0,0.7-0.4,0.8c-0.3,0.1-0.6,0.6-1,0C47.4,176.6,46.6,176.3,45.9,176.2z"/>
					</g>
					<g>
						<path class="st8" d="M14.4,191c0.6-0.9,1.5-1.7,2.4-2.3c1-0.7,0.9-2,1.9-2.6c0-1,1.1-1.5,1.3-2.4c0.1-0.5,0.9-0.6,1.4-0.4
							c-0.8,0.3-1.3,0.9-1.6,1.6c-0.3,0.5-0.6,1.1-1,1.5c-0.5,0.6-0.7,1.4-0.7,2.2c0,0.7-0.5,1.5-1.3,1.8c-0.1-0.2-0.1-0.5,0-0.7
							c0-0.1,0-0.2-0.1-0.3c-0.1-0.1-0.3,0-0.3,0c-0.3,0.7-0.9,1.1-1.4,1.7c0,0,0,0.1,0,0.1c-0.2,0-0.4,0.2-0.7,0.1
							C14.4,191.1,14.4,191,14.4,191L14.4,191z"/>
					</g>
					<g>
						<path class="st5" d="M34.1,184.3c1.1-0.6,2.2-0.2,2.7,0.9c0.1,0.2,0.1,0.4,0,0.5c-0.4,0.4-0.5,0.9-0.6,1.4
							c0,0.3-0.3,0.4-0.5,0.5C35.1,186.5,34.9,185.3,34.1,184.3z"/>
					</g>
					<g>
						<path class="st8" d="M24.5,185c1.3,0.6,2.7,0.6,4.1,0.4c-0.6,0.7-0.9,1.6-1.6,2.2c-0.2,0.2-0.4,0.3-0.5-0.1
							c-0.5-1.1-1.2-1.9-2.3-2.3C24.3,185.2,24.4,185.1,24.5,185z"/>
					</g>
					<g>
						<path class="st7" d="M40.4,173.3c-0.1-0.1-0.1-0.2-0.2-0.2c-0.1-0.2-0.2-0.3-0.4-0.2c-0.1-0.2-0.3-0.3-0.4-0.5
							c-0.1-0.2-0.1-0.4-0.4-0.4c-1.2-0.3-3-0.2-3.6,1c-0.2,0.4-0.4,0.9-0.8,1.3c0-1,0.5-1.8,1.3-2.2c1.8-1,3.3-0.9,4.7,0.7
							c0.6,0.7,1.3,1.4,2.1,1.7c-0.6,0.2-1.2-0.1-1.4-0.6C41.2,173.5,41,173.1,40.4,173.3z"/>
					</g>
					<g>
						<path class="st5" d="M38.1,182c0.3,0.3,0.7,0.5,0.6,1c0,0.1,0.1,0.2,0.1,0.4c0.5,0.7,0.3,1.2-0.5,1.5
							c-0.2,0.1-0.3-0.1-0.3-0.2c-0.3-0.5-0.4-1.1-1-1.5c-0.2-0.2-0.2-0.4,0.1-0.6c0.2-0.1,0.5-0.1,0.5-0.4
							C37.8,182.1,38,182,38.1,182z"/>
					</g>
					<g>
						<path class="st8" d="M48.4,179.7c-0.5-0.4-0.6-0.9-0.8-1.4c-0.4-0.8-0.9-1.4-1.9-1.4c-1,0-1.9,0.4-2.4,1.2
							c-0.4,0.6-0.8,1.3-1.3,2c-0.5,0.1-0.6,0-0.3-0.4c0.6-0.8,1.1-1.6,1.8-2.3c1.4-1.2,3.7-1.2,4.5,1.3
							C48.2,178.9,48.5,179.2,48.4,179.7z"/>
					</g>
					<g>
						<path class="st5" d="M35.3,192.8c-0.1,0-0.2,0.1-0.2,0.1c-0.1-0.2-0.5-0.1-0.6-0.3c0.2-0.5,0.5-1,0.7-1.5
							c0.6,0,1.1-0.5,1.7-0.5c0.2,0,0.4-0.3,0.6,0c0.2,0.2-0.1,0.4-0.1,0.6c-0.1,0-0.2,0.1-0.2,0.1
							C36.3,191.6,35.7,192.1,35.3,192.8z"/>
					</g>
					<g>
						<path class="st8" d="M38.3,174.8c-0.5,0.3-1.2,0.4-1.2,1.1c0,0.7-0.1,1.2-0.5,1.8c-0.3,0.5,0.4,1,0.7,1.5c0.3,0.4,0.8,0.5,1,1
							c-0.2,0.1-0.4,0.2-0.7,0c-0.9-0.9-1.7-2-1.2-3.4c0.2-0.4,0.3-0.9,0.5-1.3C37.1,174.9,37.5,174.7,38.3,174.8z"/>
					</g>
					<g>
						<path class="st5" d="M24.5,185c-0.1,0.1-0.2,0.1-0.3,0.2c-1-0.3-2-0.6-3-0.5c-0.1-0.3-0.1-0.6,0.2-0.7
							c0.3-0.1,0.5-0.3,0.6-0.6C22.8,184,23.8,184.3,24.5,185z"/>
					</g>
					<g>
						<path class="st7" d="M20.1,185.9c-0.1,0-0.2,0.1-0.2,0.1c-0.3,0.3-0.7,0.5-0.7,1l0,0c-0.3,0.3-0.4,0.6-0.3,1
							c0.2,0.4,0.1,0.8,0.1,1.3c-0.1,0.5-0.2,1.1,0,1.6c0.1,0.4,0,1-0.5,1.2c0.4-1.2,0.1-2.3,0-3.5c-0.2-1.4,0.8-2.7,2.1-3.4
							c0,0.1,0.1,0.1,0.1,0.2c-0.1,0.1-0.2,0.1-0.3,0.2C20.2,185.7,20.1,185.8,20.1,185.9z"/>
					</g>
					<g>
						<path class="st7" d="M24.8,186.4c-0.3-0.4-0.7-0.5-1.2-0.7c-0.7-0.3-1.6-0.2-2.3-0.5c0.5-0.4,1-0.1,1.5,0
							c1.5,0.3,2.8,0.9,3.3,2.5c0.1,0.4,0.2,0.6-0.3,0.6C25.6,187.5,25.6,186.7,24.8,186.4z"/>
					</g>
					<g>
						<path class="st5" d="M15.1,191c0,0,0-0.1,0-0.1c0.5-0.5,1.1-1,1.4-1.7c0-0.1,0.2-0.1,0.3,0c0.1,0.1,0.1,0.2,0.1,0.3
							c-0.1,0.3-0.1,0.5,0,0.7C16.3,190.7,15.7,190.9,15.1,191z"/>
					</g>
					<g>
						<path class="st8" d="M34.8,182.7c0.2-0.5,0.4-1,0.8-1.4c0.2-0.2,0.4-0.3,0.6-0.3c0.2,0,0.3,0.1,0.2,0.3
							C36,181.9,35.7,182.7,34.8,182.7z"/>
					</g>
					<g>
						<path class="st8" d="M24.8,186.4c0.8,0.4,0.8,1.2,1,1.8c-0.4,0.2-0.8,0.3-1.2,0c0.6-0.4,0.2-0.9,0.2-1.4
							C24.9,186.7,24.7,186.5,24.8,186.4z"/>
					</g>
					<g>
						<path class="st7" d="M26.1,192c-0.1-0.2-0.2-0.5-0.2-0.7c0.1-0.9-0.3-1.6-0.8-2.3c0.5,0,0.6,0.4,0.8,0.7
							c0.4,0.9,0.7,1.8,0.3,2.8C26.2,192.3,26.1,192.1,26.1,192z"/>
					</g>
					<g>
						<path class="st8" d="M22.1,183.3c-0.1,0.3-0.3,0.5-0.6,0.6c-0.4,0.2-0.4,0.4-0.2,0.7c-0.4,0.2-0.8,0.4-1.3,0.6
							C20.5,184.2,21,183.5,22.1,183.3z"/>
					</g>
					<g>
						<path class="st8" d="M48,181.5c0.3-0.3,0.5-0.7,0.4-1.1c0-0.2,0-0.3,0.2-0.5c0.4,0.7,0.5,1.4,0.3,2.2
							C48.5,181.9,48.2,181.7,48,181.5z"/>
					</g>
					<g>
						<path class="st7" d="M31.9,195c-0.1-0.3,0.2-0.4,0.4-0.6c0.4-0.4,0.7-0.8,0.9-1.3c0.2-0.1,0.3-0.3,0.4-0.5
							c0.1-0.1,0.3-0.2,0.4-0.1C33.5,193.7,32.8,194.5,31.9,195z"/>
					</g>
					<g>
						<path class="st7" d="M34.2,191.1c0.2-0.4,0.4-0.9,0.9-1.2c0,0.9-0.4,1.6-0.9,2.3c-0.1-0.1-0.1-0.2-0.2-0.4
							C33.9,191.6,34.3,191.4,34.2,191.1z"/>
					</g>
					<g>
						<path class="st8" d="M24.3,188.5c-0.2,0.1-0.5,0.1-0.7,0c-0.6-0.4-1.3-0.3-1.9,0.1c0.5-0.7,0.9-0.8,1.7-0.5
							C23.7,188.2,24,188.4,24.3,188.5z"/>
					</g>
					<g>
						<path class="st7" d="M39.8,180c-0.2-0.4-0.1-0.7,0.3-0.8c0.5-0.1,0.5,0.4,0.5,0.7C40.3,179.9,40,180,39.8,180z"/>
					</g>
					<g>
						<path class="st8" d="M36.8,182c0.5-0.9,0.8-1,1.6-0.5C37.9,181.6,37.4,181.8,36.8,182z"/>
					</g>
					<g>
						<path class="st7" d="M18.3,189.9c-0.3,0.3-0.5,0.8-1.1,0.7c0.3-0.3,0.5-0.6,0.9-0.9C18.4,189.5,18.4,189.7,18.3,189.9z"/>
					</g>
					<g>
						<path class="st8" d="M34,191.9c0.1,0.1,0.1,0.2,0.2,0.4c0,0.2-0.1,0.3-0.2,0.4c-0.2-0.1-0.3,0-0.4,0.1
							C33.5,192.4,33.6,192,34,191.9z"/>
					</g>
					<g>
						<path class="st7" d="M40.8,181.6c-0.4,0-0.9,0.4-1.2-0.1C40.1,181.3,40.5,181.3,40.8,181.6z"/>
					</g>
					<g>
						<path class="st8" d="M28.6,183.8c0.5,0,0.5,0.5,0.8,0.8c-0.2,0.3-0.2,0-0.3-0.1C28.9,184.3,28.7,184.1,28.6,183.8z"/>
					</g>
					<g>
						<path class="st8" d="M34.5,192.6c0.2,0.2,0.5,0.1,0.6,0.3c-0.3,0.1-0.5,0.2-0.8,0.2C34.1,192.9,34.3,192.8,34.5,192.6z"/>
					</g>
					<g>
						<path class="st7" d="M35.2,189c-0.1-0.4-0.3-0.8,0-1.2C35.2,188.2,35.5,188.6,35.2,189z"/>
					</g>
					<g>
						<path class="st5" d="M28.2,184.1c-0.2,0.1-0.4,0.1-0.5-0.2c-0.1-0.2,0-0.3,0.2-0.4C28,183.8,28.1,184,28.2,184.1z"/>
					</g>
					<g>
						<path class="st7" d="M54.2,174.7c0-0.1-0.1-0.2-0.1-0.2c0.2-0.1,0.4,0,0.6,0.1l0,0C54.6,174.7,54.4,174.8,54.2,174.7z"/>
					</g>
					<g>
						<path class="st8" d="M20.6,185.5c0-0.1-0.1-0.1-0.1-0.2c0.1,0,0.1-0.1,0.2-0.1c0,0.1,0.1,0.1,0.1,0.2
							C20.9,185.5,20.8,185.6,20.6,185.5z"/>
					</g>
					<g>
						<path class="st7" d="M34.8,187.3c-0.1-0.2-0.2-0.3,0-0.5C34.9,187,35,187.1,34.8,187.3z"/>
					</g>
					<g>
						<path class="st7" d="M43.5,174.6c-0.2,0.1-0.3,0.2-0.5-0.1C43.2,174.4,43.4,174.5,43.5,174.6z"/>
					</g>
					<g>
						<path class="st8" d="M23.7,183.9c0.2-0.1,0.3,0.1,0.4,0.2C24,184.1,23.8,184,23.7,183.9z"/>
					</g>
					<g>
						<path class="st8" d="M39.2,174.9c-0.2,0.1-0.3,0.2-0.5-0.1C38.9,174.8,39.1,174.8,39.2,174.9z"/>
					</g>
					<g>
						<path class="st7" d="M18.5,192.2c0.1,0.2-0.1,0.3-0.2,0.4C18.3,192.4,18.4,192.2,18.5,192.2z"/>
					</g>
					<g>
						<path class="st7" d="M25,188.9c-0.2,0.1-0.3-0.1-0.4-0.2C24.8,188.6,24.9,188.7,25,188.9z"/>
					</g>
					<g>
						<path class="st7" d="M31.2,195.4c0-0.2,0.1-0.2,0.2-0.1C31.4,195.4,31.3,195.5,31.2,195.4z"/>
					</g>
					<g>
						<path class="st8" d="M40.7,175.6c-0.2,0-0.3,0.1-0.2-0.2C40.6,175.5,40.6,175.5,40.7,175.6z"/>
					</g>
					<g>
						<path class="st7" d="M20.9,185.4c0-0.1-0.1-0.1-0.1-0.2c0.1-0.1,0.3-0.1,0.4,0C21,185.3,21,185.3,20.9,185.4z"/>
					</g>
					<g>
						<path class="st7" d="M35.1,189.5c-0.1-0.2-0.1-0.3,0.1-0.4C35.3,189.3,35.3,189.4,35.1,189.5z"/>
					</g>
					<g>
						<path class="st8" d="M24.6,188.6c-0.2,0.1-0.3,0-0.3-0.1C24.4,188.4,24.5,188.5,24.6,188.6z"/>
					</g>
					<g>
						<path class="st8" d="M20.9,191.1c0,0.1,0,0.1,0,0.2C20.9,191.2,20.9,191.2,20.9,191.1z"/>
					</g>
					<g>
						<path class="st7" d="M14.4,191c0,0,0,0.1,0,0.1C14.3,191.1,14.3,191.1,14.4,191z"/>
					</g>
					<g>
						<path class="st7" d="M28.9,196.1C29,196,29,196,28.9,196.1C29,196,29,196,28.9,196.1C29,196,29,196.1,28.9,196.1z"/>
					</g>
					<g>
						<path class="st7" d="M43.4,171.1c0,0-0.1,0.1-0.1,0.1C43.3,171.1,43.3,171.1,43.4,171.1z"/>
					</g>
					<g>
						<path class="st8" d="M20.9,190.4c0,0.1,0,0.1,0,0.2C20.8,190.6,20.8,190.5,20.9,190.4z"/>
					</g>
					<g>
						<path class="st5" d="M54.2,174.7c0.2,0.1,0.3,0,0.5-0.1c0.3,0.3,0.5,0.6,0.8,0.9c0.1,0.2,0.1,0.3,0.4,0.3
							c0.2,0.5,0.5,1,0.7,1.5c0.1,0.2,0.2,0.5,0.1,0.7c-0.4,0.3-0.6,0.6-0.5,1.1c-0.5,0.1-0.7-0.1-0.7-0.6c0-0.2,0.1-0.4-0.1-0.5
							c-0.6-0.4-0.2-0.7,0-1c0.3-0.3,0.2-0.5-0.1-0.7c-0.4-0.2-0.7-0.3-1.1-0.5c-0.4-0.2-0.8-0.1-1.1,0.2c-0.2,0.2-0.5,0.3-0.8,0.2
							c-0.2-0.1-0.4,0-0.5,0.2c-0.1,0.2-0.1,0.3-0.3,0.4c-0.3,0.1-0.6,0.5-0.9,0.2c-0.2-0.3,0.3-0.4,0.4-0.6
							c0.1-0.1,0.3-0.3,0.4-0.4C52.2,175,53.2,174.7,54.2,174.7z"/>
					</g>
					<g>
						<path class="st5" d="M54.9,182c-0.2,0.1-0.4,0.2-0.6,0c-0.1-0.2,0.1-0.3,0.2-0.4c0.2-0.3,0-0.7-0.4-0.9
							c-0.7-0.3-0.8-0.4-0.5-1.1c0.1-0.3,0.3-0.4,0.6-0.3c0.5,0.2,1.1,0.3,1.6,0.7c0,0.2-0.1,0.4-0.1,0.6c-0.2,0.4-0.4,0.9-0.5,1.3
							C55.1,182,55,182,54.9,182z"/>
					</g>
					<g>
						<path class="st8" d="M56.2,179.1c-0.1-0.5,0.1-0.8,0.5-1.1c0.2,0.3,0,0.6-0.1,0.9C56.5,179,56.3,179,56.2,179.1L56.2,179.1z"
							/>
					</g>
					<g>
						<path class="st8" d="M55.1,181.9c0.2-0.4,0.4-0.9,0.5-1.3C55.9,181.4,55.7,181.8,55.1,181.9z"/>
					</g>
					<g>
						<path class="st8" d="M55.9,175.8c-0.2,0.1-0.3-0.1-0.4-0.3C55.8,175.4,55.8,175.6,55.9,175.8z"/>
					</g>
					<g>
						<path class="st5" d="M56.2,179.1c0.1-0.1,0.2-0.1,0.4-0.2c0.1,0.2-0.1,0.3-0.2,0.4C56.3,179.2,56.3,179.2,56.2,179.1z"/>
					</g>
					<g>
						<path class="st6" d="M27.5,172.6c0.2-0.1,0.1-0.3,0.2-0.5c0.1-0.1,0.1-0.2,0.2-0.2c0.1,0,0.2-0.2,0.3-0.2l0,0
							c0,0.1,0.6-0.3,0.6-0.2c0,0.1,0.4,0.1,0.5,0.2c-0.2,0.1-1.1,0.7-1.1,0.9c-0.2,0.1-0.6,0.4-0.8,0.6
							C27.4,173,27.4,172.8,27.5,172.6z"/>
					</g>
					<g>
						<path class="st5" d="M28.2,171.7L28.2,171.7L28.2,171.7z"/>
					</g>
					<g>
						<path class="st5" d="M34,191.9c-0.4,0.1-0.4,0.5-0.5,0.8c-0.1,0.2-0.2,0.3-0.4,0.5c-0.5-0.2-0.7-0.5-0.3-1
							c0.3-0.5,0-0.6-0.4-0.7c-0.3-0.1-0.7-0.1-0.8-0.6c0-1,0-1.1,1-0.8c0.1,0,0.2,0,0.3,0c0.7,0,1.1,0.3,1.2,1
							C34.3,191.4,33.9,191.6,34,191.9z"/>
					</g>
					<g>
						<path class="st5" d="M42.1,182.6c0.5,0.1,0.8,0.4,1.1,0.8c-0.2,0.4-0.3,0.9-0.5,1.3c-0.2,0.3-0.3,0.1-0.4-0.1
							c-0.2-0.4-0.4-0.7-0.9-0.7c-0.4,0-0.5-0.3-0.3-0.6C41.3,182.9,41.6,182.6,42.1,182.6z"/>
					</g>
					<g>
						<path class="st5" d="M39.7,182c0,0.2,0,0.4-0.2,0.5c-0.2,0.1-0.5,0.1-0.6-0.2c-0.1-0.1-0.1-0.3,0.1-0.3
							C39.2,182,39.5,181.8,39.7,182z"/>
					</g>
					<g>
						<path class="st5" d="M51.8,182.4c0.2-0.1,0.4-0.3,0.6-0.2c0.2,0.2,0.1,0.4,0,0.6c-0.1,0.3,0,0.4,0.2,0.5
							c0.2,0.1,0.2,0.3,0.1,0.5c-0.1,0.2-0.3,0.3-0.5,0.3c-0.5,0-0.9-0.3-1-0.8C51.1,182.8,51.3,182.6,51.8,182.4z"/>
					</g>
					<g>
						<path class="st6" d="M50,177C50,177,50.1,177,50,177C50.1,177,50,177,50,177L50,177z"/>
					</g>
					<g>
						<path class="st5" d="M48.5,185.6c-0.5-0.8-0.9-1.8-2-2c0,0-0.1,0-0.1-0.1c-0.1-1-0.9-0.7-1.5-0.9c-0.2-0.1-0.5-0.1-0.5-0.3
							c0-0.2,0.4-0.3,0.6-0.2c0.5,0.2,1.1-0.1,1.6-0.1c0.6-0.1,0.9,0.1,1.2,0.5c0.3,0.6,0.9,1.1,1,1.9
							C48.9,184.8,48.9,185.2,48.5,185.6L48.5,185.6z"/>
					</g>
					<g>
						<path class="st5" d="M48.5,185.6c0.4,0.6,0,1.1-0.2,1.6c-0.3,0.8-1.7,1.4-2.5,1.2c-0.1,0-0.3-0.1-0.3-0.3
							c0-0.2,0.2-0.2,0.3-0.3c0.3-0.2,0.9-0.2,0.7-0.9c-0.1-0.2,0.2-0.2,0.3-0.2c0.2,0,0.5,0,0.7,0c0.3,0,0.6-0.1,0.6-0.5
							C48,185.9,48.2,185.7,48.5,185.6L48.5,185.6z"/>
					</g>
					<g>
						<path class="st8" d="M35.3,192.8c0.4-0.8,1-1.3,1.8-1.6C36.8,192.3,36.2,192.8,35.3,192.8z"/>
					</g>
					<g>
						<path class="st8" d="M19.2,187.1c0-0.5,0.3-0.8,0.7-1C20.1,186.6,19.5,186.7,19.2,187.1z"/>
					</g>
					<g>
						<path class="st8" d="M20.1,185.9c0-0.1,0.1-0.2,0.2-0.2C20.3,185.8,20.4,186,20.1,185.9z"/>
					</g>
					<g>
						<path class="st8" d="M39,172c0.2,0,0.3,0.3,0.4,0.4c-0.2,0.1-0.3,0.1-0.5-0.1C38.8,172.1,38.9,172,39,172z"/>
					</g>
					<g>
						<path class="st8" d="M39.8,172.9c0.2-0.1,0.3,0.1,0.4,0.2C40,173.2,39.9,173.1,39.8,172.9z"/>
					</g>
				</g>
			</g>
			<g>
				<path class="st6" d="M27.7,175c0,0,0.1-0.2-0.2-0.9s-0.4-1.4-0.1-1.8s0.7-0.8,1.9-1.2c1.2-0.4,2.2-0.7,3.6,0.7
					c1.3,1.4,0.6,1.2,0.6,1.2l-0.7-1l-0.9-0.6l-0.8-0.1l-1.6,0.3l-1.2,0.7l-0.4,1l0,1.3l0,0.6L27.7,175z"/>
			</g>
		</g>
		<g>
			<g>
				<g>
					<g>
						<path class="st6" d="M67,267.3c-0.2-0.1-1.1-0.6-1.4-0.7c-0.7-0.1-1.4-0.1-2,0.2c-0.3,0.2-0.6,0.5-0.9,0.7
							c-0.1,0.1-1.5,2.3-2.2,2.8c-0.2,0.2-0.7,0.6-1.1,0.5c-0.4,0.2-0.7,0.3-1.1,0l0,0c-0.4-0.1-0.8-0.2-1.2-0.4
							c-0.6-0.3-1.2-0.1-1.6,0.4c-1.4,1.5-1.4,3.6-0.1,5c0.9,1,1.8,2,3.2,2.3c0.2,0,1.8,0.3,2.1,0.4c1.7,0.5,3.2-0.3,4.6-1.1
							c0.7-0.4,1.9-2.3,2-2.4c0.2-0.5,0.5-0.9,0.7-1.4c0.1-0.6,0.4-1.2,0.5-1.8c0-0.5,0-0.9-0.1-1.4C67.9,269.4,67.7,268.2,67,267.3
							z M68,271.7c0.1,0.1,0,0.2-0.1,0.3c0.1,0.2,0,0.3-0.1,0.4c0,0.8-0.4,1.5-0.8,2.1c0,0.2-0.1,0.3-0.2,0.4
							c-0.4,0.9-1,1.7-1.9,2.2c-0.1,0.1-0.3,0.1-0.4,0.2c0,0.1-0.1,0.2-0.2,0.1c-0.6,0.4-1.3,0.5-2,0.6c0,0-0.1,0-0.1,0
							c0,0-0.1,0-0.1,0.1c0.1,0.2,0,0.2-0.2,0.2c-1.5-0.1-3-0.3-4.4-1c-0.4-0.2-0.8-0.4-1-0.9c-0.3-0.4-0.9-0.6-1.1-1.2
							c-0.3-0.5-0.5-1-0.6-1.6c0-0.1,0-0.1,0-0.2c-0.1-0.1-0.1-0.3-0.1-0.5c0-0.1,0-0.1,0-0.2c0.2-0.6,0.3-1.2,0.8-1.7
							c0.5-0.6,0.8-0.7,1.6-0.5c0.3,0.1,0.5,0.3,0.8,0.4l0,0c0.1-0.1,0.2,0,0.3,0.1l0,0c0.2,0,0.3,0.1,0.4,0.2c0,0,0,0.1,0.1,0.1
							c0.5,0,0.6,0.4,0.7,0.7c0.4,0.8,0.7,1.7,0.3,2.6c0,0.1,0.1,0.1,0.1,0.2c0.1,1.1,0.2,2.1,1.2,2.8c0.1,0.1,0.3,0.2,0.5,0.2
							c-1.2-0.8-1.4-2-1.4-3.4c0.1-1.1,0-2.1-0.8-2.9c-0.2-0.2,0-0.3,0.2-0.3c0.9-0.3,1.4-0.9,1.9-1.6c0.7-1,1.4-2.1,2.6-2.6
							c1.6-0.7,3,0.1,3.3,2c0.1,0.2,0.2,0.4,0.2,0.5c0.1,0.1,0.2,0.3,0,0.4c-0.1,0.1,0,0.2,0,0.3c0.1,0,0.2,0,0.3,0.1
							c0.1,0.4,0.3,0.7,0,1.1C68,271.7,68,271.7,68,271.7z"/>
					</g>
					<g>
						<path class="st8" d="M61.5,278c-1.2-0.8-1.4-2-1.4-3.4c0.1-1.1,0-2.1-0.8-2.9c-0.2-0.2,0-0.3,0.2-0.3c0.9-0.3,1.4-0.9,1.9-1.6
							c0.7-1,1.4-2.1,2.6-2.6c1.6-0.7,3,0.1,3.3,2c-0.3-0.2-0.4-0.6-0.5-0.8c-0.3-0.6-1.3-1.1-1.9-1c-0.4,0.1,0,0.7-0.4,0.6
							c-0.2,0-0.3-0.5-0.7-0.3c0,0,0,0-0.1,0c-0.4,0.3-0.8,0.5-1,0.9c-0.2,0.5-0.4,0.9-0.8,1.2c-0.1,0.1-0.2,0.2-0.1,0.4
							c0.1,0.2,0.2,0.1,0.4,0c0.3-0.2,0.5-0.4,0.7-0.7c0.1-0.2,0.2-0.4,0.5-0.3c0.4,0.1,0.5-0.1,0.7-0.3c0.2-0.2,0.5-0.3,0.8-0.4
							c0.6-0.2,0.9,0.3,1.4,0.5c0.4,0.2,0.6,0.4,0.2,0.8c-0.2,0.2-0.4,0.6-0.2,0.7c0.6,0.2,0.4,0.6,0.5,1c0,0.2,0.1,0.3,0.3,0.3
							c0.2,0,0.3-0.1,0.3-0.3c0.1-0.4,0.2-0.7,0.4-1.1c0.1,0,0.2,0,0.3,0.1c-0.3,0.4-0.1,0.7,0,1.1c0,0,0,0.1,0,0.1
							c-0.1,0.1-0.2,0.2-0.1,0.3c0.1,0.2,0,0.3-0.1,0.4c-0.4,0.2-0.6,0.7-0.8,1.1c-0.1-0.7-0.5-0.9-1.1-0.9c-0.1,0-0.2,0-0.2,0
							c-0.9-0.2-0.9-0.2-0.9,0.8c0,0.5,0.4,0.5,0.7,0.6c0.4,0.1,0.6,0.2,0.3,0.6c-0.3,0.4-0.1,0.7,0.3,0.9c-0.2,0.5-0.5,0.8-0.8,1.2
							c-0.2,0.2-0.4,0.3-0.3,0.6c-0.1,0.1-0.3,0.1-0.4,0.2c-0.1-0.1-0.2,0-0.2,0.1c-0.6,0.4-1.3,0.5-2,0.6c0,0,0,0-0.1-0.1
							c0,0,0,0.1,0,0.1c0,0-0.1,0-0.1,0.1C61.9,278.1,61.7,277.9,61.5,278z"/>
					</g>
					<g>
						<path class="st8" d="M59.7,274.9c0,0.1,0.1,0.1,0.1,0.2c-0.5-0.1-1.1,0.6-1.6,0c-0.2-0.2-0.5,0-0.6,0.2
							c-0.2,0.2,0.1,0.3,0.2,0.4c0.2,0.3,0.4,0.5,0.6,0.8c0.2,0.2,0.6,0.5,0.3,0.8c-0.2,0.2-0.6-0.1-0.9-0.3
							c-0.1-0.1-0.2-0.2-0.2-0.3c-0.2-0.5-0.5-0.5-0.9-0.3c-0.3-0.4-0.9-0.6-1.1-1.2c0.1-0.1,0.3-0.1,0.2-0.4c-0.2-0.6,0-1,0.2-1.5
							c0.1-0.3,0.3-0.6,0.1-1c-0.1-0.2,0-0.3,0.2-0.4c0.4-0.3,0.8-0.2,1.2,0c0.8,0.2,0.8,0.2,0.6,1c-0.1,0.2-0.1,0.5,0.2,0.5
							c0.6-0.1,0.7,0.4,0.9,0.8c0.2,0.4,0.4,0.5,0.7,0C59.6,274.5,59.7,274.7,59.7,274.9z"/>
					</g>
					<g>
						<path class="st5" d="M59.6,274.4c-0.2,0.4-0.5,0.4-0.7,0c-0.2-0.4-0.2-0.9-0.9-0.8c-0.2,0-0.2-0.2-0.2-0.5
							c0.2-0.8,0.2-0.8-0.6-1c-0.4-0.1-0.8-0.3-1.2,0c-0.1,0.1-0.3,0.2-0.2,0.4c0.2,0.3,0.1,0.6-0.1,1c-0.2,0.5-0.4,1-0.2,1.5
							c0.1,0.2-0.1,0.3-0.2,0.4c-0.3-0.5-0.5-1-0.6-1.6c0-0.1,0-0.1,0-0.2c-0.1-0.1-0.1-0.3-0.1-0.5c0-0.1,0-0.1,0-0.2
							c0.2-0.6,0.3-1.2,0.8-1.7c0.6-0.4,1.1-0.4,1.7-0.1c0.2,0.1,0.4,0.1,0.6,0l0,0c0.1,0.1,0.2,0.2,0.3,0.1l0,0
							c0.1,0.2,0.1,0.3,0.4,0.2c0,0,0,0.1,0.1,0.1c0.5,0.6,0.8,1.3,0.7,2.1C59.4,273.9,59.5,274.1,59.6,274.4z"/>
					</g>
					<g>
						<path class="st5" d="M67.7,270.4c-0.1,0.4-0.2,0.7-0.4,1.1c-0.1,0.2-0.1,0.3-0.3,0.3c-0.2,0-0.2-0.2-0.3-0.3
							c-0.1-0.4,0.2-0.8-0.5-1c-0.2-0.1,0-0.5,0.2-0.7c0.4-0.4,0.3-0.6-0.2-0.8c-0.5-0.2-0.8-0.7-1.4-0.5c-0.3,0.1-0.6,0.2-0.8,0.4
							c-0.2,0.2-0.3,0.4-0.7,0.3c-0.2-0.1-0.3,0.1-0.5,0.3c-0.2,0.3-0.4,0.5-0.7,0.7c-0.1,0.1-0.3,0.1-0.4,0
							c-0.1-0.1-0.1-0.2,0.1-0.4c0.4-0.3,0.6-0.8,0.8-1.2c0.2-0.4,0.6-0.7,1-0.9c0,0,0,0,0.1,0c0.4-0.2,0.5,0.3,0.7,0.3
							c0.4,0.1,0-0.6,0.4-0.6c0.6-0.1,1.6,0.4,1.9,1c0.2,0.3,0.2,0.7,0.5,0.8c0.1,0.2,0.2,0.4,0.2,0.5c-0.2,0.2-0.1,0.3,0,0.4
							C67.6,270.2,67.6,270.3,67.7,270.4z"/>
					</g>
					<g>
						<path class="st7" d="M56.5,276.5c0.4-0.2,0.7-0.2,0.9,0.3c0,0.1,0.1,0.2,0.2,0.3c0.3,0.2,0.7,0.5,0.9,0.3
							c0.3-0.3-0.1-0.5-0.3-0.8c-0.2-0.3-0.4-0.5-0.6-0.8c-0.1-0.1-0.4-0.2-0.2-0.4c0.2-0.2,0.5-0.4,0.6-0.2c0.6,0.6,1.1-0.1,1.6,0
							c0.1,1.1,0.2,2.1,1.2,2.8c0.1,0.1,0.3,0.2,0.5,0.2c0.3-0.1,0.4,0.1,0.6,0.2c0.1,0.2,0,0.2-0.2,0.2c-1.5-0.1-3-0.3-4.4-1
							C57.1,277.2,56.7,276.9,56.5,276.5z"/>
					</g>
					<g>
						<path class="st7" d="M59.6,274.4c-0.1-0.2-0.2-0.5-0.2-0.7c0.1-0.8-0.3-1.5-0.7-2.1c0.5,0,0.6,0.4,0.7,0.7
							c0.4,0.8,0.7,1.7,0.3,2.6C59.7,274.7,59.6,274.5,59.6,274.4z"/>
					</g>
					<g>
						<path class="st7" d="M64.9,277.2c-0.1-0.3,0.2-0.4,0.3-0.6c0.3-0.3,0.7-0.7,0.8-1.2c0.2-0.1,0.3-0.2,0.3-0.4
							c0.1-0.1,0.2-0.1,0.4,0C66.4,275.9,65.8,276.7,64.9,277.2z"/>
					</g>
					<g>
						<path class="st7" d="M67,273.5c0.2-0.4,0.4-0.8,0.8-1.1c0,0.8-0.4,1.5-0.8,2.1c-0.1-0.1-0.1-0.2-0.2-0.3
							C66.8,274,67.2,273.8,67,273.5z"/>
					</g>
					<g>
						<path class="st8" d="M57.9,271.2c-0.2,0.1-0.4,0.1-0.6,0c-0.6-0.3-1.2-0.3-1.7,0.1c0.5-0.6,0.8-0.7,1.6-0.5
							C57.4,270.9,57.7,271.1,57.9,271.2z"/>
					</g>
					<g>
						<path class="st8" d="M66.9,274.3c0.1,0.1,0.1,0.2,0.2,0.3c0,0.2-0.1,0.3-0.2,0.4c-0.1-0.1-0.3,0-0.4,0
							C66.5,274.7,66.5,274.4,66.9,274.3z"/>
					</g>
					<g>
						<path class="st7" d="M68,271.6c-0.1-0.4-0.3-0.7,0-1.1C68,270.9,68.2,271.3,68,271.6z"/>
					</g>
					<g>
						<path class="st7" d="M67.6,270.1c-0.1-0.1-0.2-0.3,0-0.4C67.7,269.8,67.8,269.9,67.6,270.1z"/>
					</g>
					<g>
						<path class="st7" d="M58.6,271.5c-0.2,0.1-0.3-0.1-0.4-0.2C58.4,271.3,58.5,271.4,58.6,271.5z"/>
					</g>
					<g>
						<path class="st7" d="M64.3,277.5c0-0.1,0.1-0.2,0.2-0.1C64.5,277.6,64.4,277.6,64.3,277.5z"/>
					</g>
					<g>
						<path class="st7" d="M67.9,272.1c-0.1-0.1,0-0.2,0.1-0.3C68.1,271.9,68,272,67.9,272.1z"/>
					</g>
					<g>
						<path class="st8" d="M58.2,271.3c-0.1,0.1-0.2,0-0.3-0.1C58.1,271.1,58.2,271.2,58.2,271.3z"/>
					</g>
					<g>
						<path class="st8" d="M54.8,273.6c0,0.1,0,0.1,0,0.2C54.8,273.7,54.8,273.7,54.8,273.6z"/>
					</g>
					<g>
						<path class="st7" d="M62.2,278.1C62.2,278.1,62.2,278.1,62.2,278.1C62.3,278.1,62.3,278.1,62.2,278.1
							C62.3,278.1,62.3,278.1,62.2,278.1z"/>
					</g>
					<g>
						<path class="st8" d="M54.8,273c0,0.1,0,0.1,0,0.2C54.7,273.1,54.8,273,54.8,273z"/>
					</g>
					<g>
						<path class="st5" d="M66.9,274.3c-0.3,0.1-0.4,0.4-0.4,0.7c0,0.2-0.2,0.3-0.3,0.4c-0.4-0.2-0.6-0.5-0.3-0.9
							c0.3-0.4,0-0.5-0.3-0.6c-0.3-0.1-0.7-0.1-0.7-0.6c0-0.9,0-1,0.9-0.8c0.1,0,0.2,0,0.2,0c0.6,0,1.1,0.2,1.1,0.9
							C67.2,273.8,66.8,274,66.9,274.3z"/>
					</g>
				</g>
			</g>
		</g>
		<g>
			<path class="st9" d="M45.9,268.3l49.6-26.5c0,0-8.2-11.3-8.9-12.4s-12.3-22.8-13.4-24.9c-1.1-2.1-4.3-9-6-11.7
				c-1.6-2.8-3-4.5-3.5-5.5s-3.1-9.4-3.7-11.1c-0.6-1.7-2.4-5.7-2.5-6c-0.1-0.3-2.2,3.8-3.9,4.9c-1.6,1.1-3.7,5.1-6.1,6
				s-9.7,4.2-13.3,6.1c-3.6,1.9-9.2,4.2-13,6.3s-12.2,2-13.2,2.7c0.8,1.3,0.9,2.2,3.4,5.4s4.1,5.5,5.3,6.6s2.5,2.8,2.6,3.4
				c0.1,0.6,0.3,2.1,1.6,4.7c1.4,2.6,12.1,23.4,13.7,26.3c1.6,2.9,3.9,5.8,4.6,7.4c0.7,1.6,1.6,5.6,2.3,7.5
				C42.2,259.4,45.9,268.3,45.9,268.3z"/>
		</g>
		<g>
			<path class="st1" d="M39.6,233.8c0,0-13.4-2.3-14.8-9.9C22.5,229.4,21,257.3,39.6,233.8z"/>
		</g>
		<g>
			<path class="st10" d="M13,206.3l-0.9-3c0.1,0,12.4-3.6,19.1-6.5c6.7-2.9,19.9-10,21.7-11.1c1.8-1.1,8.9-6.2,9-6.3l1.8,2.6
				c-0.3,0.2-7.2,5.2-9.1,6.3c-1.9,1.2-15.1,8.3-22.1,11.4C25.7,202.7,13.6,206.2,13,206.3z"/>
		</g>
		<g>
			<path class="st10" d="M43.6,262.7l-1.2-2.9c8.3-3.5,22.1-9.4,23.7-10.6c2.4-1.8,22.4-12.9,24.7-14.1l1.5,2.8
				c-6.1,3.4-22.5,12.5-24.3,13.9C65.5,253.6,45.8,261.8,43.6,262.7z"/>
		</g>
		<g>
			<path class="st5" d="M75.5,275.9c-0.3,0.3-0.5,0.6-1,0.5c-0.3-0.1-0.5,0.2-0.7,0.4c-0.3,0.4-0.6,0.8-1,1c-0.2,0.1-0.4,0.2-0.5,0
				c-0.1-0.2-0.1-0.4,0.1-0.5c0.6-0.5,0.9-1.1,1.2-1.8c0.3-0.6,0.9-1,1.4-1.4c0,0,0.1,0,0.1,0C75.6,273.9,75.8,275.6,75.5,275.9z"/>
		</g>
		<g>
			<path class="st7" d="M79.4,276.8c-0.3-0.4-0.6-0.8-0.9-1.2c-0.1-0.2-0.5-0.3-0.3-0.6c0.2-0.3,0.7-0.5,0.9-0.3
				c0.9,0.9,1.6-0.1,2.4-0.1C81.7,276.2,79.7,277.2,79.4,276.8z"/>
		</g>
		<g>
			<path class="st5" d="M75.8,282.6c-0.3-0.5,0.2-1.6,0.3-2.1c0-0.5-0.1-1,0.7-1.1c1.3-0.2,1.4-0.2,1.3,1.2c0,0.1,0,0.2,0,0.3
				c0.2,0.9-0.1,1.6-1.1,1.8C76.5,283,76.1,282.5,75.8,282.6z"/>
		</g>
		<g>
			<path class="st6" d="M87,280.4c0,0-0.2-0.1-0.3-0.1c-0.1,0-0.3,0-0.4,0c-0.1,0-0.1,0.1-0.2,0.1c0,0-0.3,0.4-0.4,0.5
				c0,0-0.1,0.1-0.2,0.1c-0.1,0-0.1,0-0.2,0l0,0c-0.1,0-0.1,0-0.2-0.1c-0.1,0-0.2,0-0.3,0.1c-0.3,0.3-0.3,0.7,0,0.9
				c0.2,0.2,0.3,0.4,0.6,0.4c0,0,0.3,0.1,0.4,0.1c0.3,0.1,0.6-0.1,0.9-0.2c0.1-0.1,0.4-0.4,0.4-0.5c0-0.1,0.1-0.2,0.1-0.3
				c0-0.1,0.1-0.2,0.1-0.3c0-0.1,0-0.2,0-0.3C87.1,280.8,87.1,280.6,87,280.4z"/>
		</g>
		<g>
			<path class="st7" d="M87.3,283.6c-0.4-0.5-1.4-0.9-0.7-1.7c0.6-0.7,1.8-1.4,2.4-0.7C91.2,283.5,88,284.7,87.3,283.6z"/>
		</g>
		<g>
			<path class="st5" d="M146.5,232.8c0.3-0.5,0.6-1,1.4-0.9c0.5,0.1,0.7-0.4,0.9-0.8c0.4-0.6,0.7-1.3,1.3-1.8
				c0.2-0.2,0.5-0.3,0.8-0.1c0.2,0.3,0.2,0.5-0.1,0.8c-0.7,0.8-1.1,1.8-1.3,2.9c-0.3,0.9-1.1,1.6-1.8,2.3c0,0-0.1,0-0.1,0
				C146.8,235.8,146.1,233.4,146.5,232.8z"/>
		</g>
		<g>
			<path class="st7" d="M131.2,282.2c0.5,0.5,1,1,1.5,1.6c0.2,0.3,0.8,0.4,0.5,0.9c-0.3,0.4-0.9,0.9-1.3,0.6
				c-1.4-1.1-2.3,0.5-3.5,0.6C127.9,283.6,130.7,281.8,131.2,282.2z"/>
		</g>
		<g>
			<path class="st5" d="M162.6,243c0.5,0.6,0,2.3,0.1,3.1c0,0.7,0.3,1.4-0.7,1.8c-1.9,0.6-2,0.6-2.1-1.4c0-0.2,0-0.3-0.1-0.5
				c-0.4-1.3-0.2-2.3,1.2-2.9C161.5,242.6,162.1,243.3,162.6,243z"/>
		</g>
		<g>
			<path class="st6" d="M149.7,287.4c0,0,0.3,0.1,0.4,0.1c0.2,0,0.4,0,0.5-0.1c0.1-0.1,0.1-0.1,0.2-0.2c0,0,0.3-0.7,0.5-0.8
				c0-0.1,0.2-0.2,0.3-0.2c0.1-0.1,0.2-0.1,0.3,0l0,0c0.1,0,0.2,0,0.3,0.1c0.2,0,0.3,0,0.4-0.2c0.3-0.5,0.3-1-0.2-1.4
				c-0.3-0.2-0.6-0.5-1-0.5c-0.1,0-0.5,0-0.6,0c-0.5-0.1-0.9,0.2-1.2,0.5c-0.2,0.1-0.4,0.7-0.5,0.7c0,0.1-0.1,0.3-0.1,0.4
				c0,0.2-0.1,0.3-0.1,0.5c0,0.1,0,0.3,0.1,0.4C149.4,286.9,149.5,287.2,149.7,287.4z"/>
		</g>
		<g>
			<path class="st7" d="M152,243.8c0.6,0.7,2.2,1,1.4,2.3c-0.7,1.1-2.3,2.4-3.4,1.5C146.1,244.8,150.6,242.4,152,243.8z"/>
		</g>
	</g>
	<g class="st11">
		<path class="st12" d="M232.5,12.5c0-10-23.8-18.1-53.2-18.1c-12.2,0-23.4,1.4-32.4,3.8c-3.2-0.2-6.6-0.3-10-0.3
			C114.8-2.1,95.8,2.5,87.8,9C78.2,5.9,65.2,4,50.9,4C21.5,4-2.3,12.1-2.3,22c0,10,23.8,18.1,53.2,18.1C73,40.1,92,35.5,100,29
			c0.5,0.1,0.9,0.3,1.4,0.4c-4,2.5-6.2,5.4-6.2,8.5c0,10,23.8,18.1,53.2,18.1s53.2-8.1,53.2-18.1c0-2.9-2.1-5.7-5.8-8.2
			C217.1,27.4,232.5,20.6,232.5,12.5z"/>
	</g>
	<g class="st11">
		<path class="st12" d="M85.4,24.4c-0.2,0-0.4,0-0.6,0c0,0,0,0,0,0c0-12.4-25-22.5-55.9-22.5s-55.9,10.1-55.9,22.5
			c0,7.5,9.2,14.1,23.2,18.2c-0.7,1.4-1,2.8-1,4.3c0,2.9,1.4,5.7,4,8.3C-21,58.6-35.2,66.6-35.2,75.9c0,12.4,25,22.5,55.9,22.5
			s55.9-10.1,55.9-22.5c0-2.5-1-4.8-2.8-7c3.7,0.3,7.6,0.5,11.5,0.5c30.9,0,55.9-10.1,55.9-22.5S116.2,24.4,85.4,24.4z"/>
	</g>
	<g class="st11">
		<path class="st12" d="M250.6,74c8.1-3.8,13.1-8.7,13.1-14.1c0-11.8-23.8-21.4-53.2-21.4c-2,0-4,0.1-6,0.2c0-0.1,0-0.1,0-0.2
			c0-11.8-23.8-21.4-53.2-21.4s-53.2,9.6-53.2,21.4c0,6.5,7.2,12.3,18.5,16.2c-21.4,2.8-36.9,10.9-36.9,20.4
			c0,11.8,23.8,21.4,53.2,21.4c12.2,0,23.5-1.7,32.4-4.5c1.4,11.3,24.6,20.4,53.1,20.4c29.4,0,53.2-9.6,53.2-21.4
			C271.7,84,263.4,77.9,250.6,74z"/>
	</g>
</g>
</svg>
