<?xml version="1.0" encoding="utf-8"?>
<!-- Generator: Adobe Illustrator 18.0.0, SVG Export Plug-In . SVG Version: 6.00 Build 0)  -->
<!DOCTYPE svg PUBLIC "-//W3C//DTD SVG 1.1//EN" "http://www.w3.org/Graphics/SVG/1.1/DTD/svg11.dtd">
<svg version="1.1" id="Ebene_1" xmlns="http://www.w3.org/2000/svg" xmlns:xlink="http://www.w3.org/1999/xlink" x="0px" y="0px"
	 viewBox="0 0 50 50" enable-background="new 0 0 50 50" xml:space="preserve">
<g>
	
		<line fill="none" stroke="#222222" stroke-width="1.3225" stroke-linecap="round" stroke-linejoin="round" stroke-miterlimit="10" x1="25" y1="41.8" x2="25" y2="16"/>
	<g>
		<path fill="#222222" d="M25,9.5c3.2,4.7,3.3,7.4,2.7,8.9C27.1,20,25.6,20.7,25,21c-0.7-0.2-2.1-0.9-2.7-2.6
			C21.7,16.9,21.8,14.2,25,9.5 M25,7.2c-9.7,12.9,0,15.1,0,15.1S34.7,20.1,25,7.2L25,7.2z"/>
	</g>
	
		<polyline fill="none" stroke="#222222" stroke-width="1.3225" stroke-linecap="round" stroke-linejoin="round" stroke-miterlimit="10" points="
		16.2,24.2 20.7,28.7 25,33 	"/>
	<g>
		<path fill="#222222" d="M11.6,19.6c5.5,1.1,7.5,2.9,8.2,4.4c0.7,1.6,0.2,3.1-0.1,3.7c-0.4,0.2-1.2,0.5-2.1,0.5
			C14,28.2,12.4,23.4,11.6,19.6 M10,18c1.4,9.6,5,11.5,7.6,11.5c1.7,0,3.1-0.8,3.1-0.8S25.9,20.3,10,18L10,18z"/>
	</g>
	
		<polyline fill="none" stroke="#222222" stroke-width="1.3225" stroke-linecap="round" stroke-linejoin="round" stroke-miterlimit="10" points="
		25,37.3 29.3,33 33.8,28.5 	"/>
	<g>
		<path fill="#222222" d="M38.4,23.9c-0.7,3.8-2.4,8.6-6,8.6c-0.9,0-1.7-0.3-2.1-0.5c-0.3-0.6-0.8-2.2-0.1-3.7
			C30.8,26.9,32.8,25,38.4,23.9 M40,22.3L40,22.3L40,22.3z M40,22.3C24.1,24.6,29.3,33,29.3,33s1.3,0.8,3.1,0.8
			C35,33.8,38.6,31.9,40,22.3L40,22.3z"/>
	</g>
</g>
</svg>
