<?xml version="1.0" encoding="utf-8"?>
<!-- Generator: Adobe Illustrator 18.0.0, SVG Export Plug-In . SVG Version: 6.00 Build 0)  -->
<!DOCTYPE svg PUBLIC "-//W3C//DTD SVG 1.1//EN" "http://www.w3.org/Graphics/SVG/1.1/DTD/svg11.dtd">
<svg version="1.1" id="Ebene_1" xmlns="http://www.w3.org/2000/svg" xmlns:xlink="http://www.w3.org/1999/xlink" x="0px" y="0px"
	 viewBox="0 0 50 50" enable-background="new 0 0 50 50" xml:space="preserve">
<path fill="#222222" d="M50,25c0,13.8-11.2,25-25,25C11.2,50,0,38.8,0,25c0-0.8,0-1.6,0.1-2.4v-0.1c0.2-1.7,0.5-3.3,1-4.9
	C4.3,7.4,13.8,0,25,0c11.2,0,20.7,7.4,23.8,17.5c0.5,1.6,0.8,3.2,1,5v0.1C50,23.4,50,24.2,50,25z"/>
<g>
	<path fill="#333333" d="M48.7,17.5C45.5,7.4,36.1,0,24.9,0S4.2,7.4,1,17.5v0l0,0.1l-1,4.9v0.1C1.3,35.2,11.9,45,24.9,45
		s23.6-9.8,24.9-22.4v-0.1L48.7,17.5z"/>
	<path fill="#4D4D4D" d="M48.7,17.5L48.7,17.5C45.5,27.7,36.1,35,24.9,35C13.7,35,4.2,27.7,1,17.5v0C4.2,7.4,13.7,0,24.9,0
		C36.1,0,45.5,7.4,48.7,17.5z"/>
</g>
<g>
	
		<line fill="none" stroke="#FFFFFF" stroke-width="1.3225" stroke-linecap="round" stroke-linejoin="round" stroke-miterlimit="10" x1="25" y1="41.8" x2="25" y2="16"/>
	<g>
		<path fill="#FFFFFF" d="M25,9.5c3.2,4.7,3.3,7.4,2.7,8.9C27.1,20,25.6,20.7,25,21c-0.6-0.2-2.1-0.9-2.7-2.5
			C21.5,16.3,22.5,13.2,25,9.5 M25,7.2c-9.7,12.9,0,15.1,0,15.1S34.7,20.1,25,7.2L25,7.2z"/>
	</g>
	
		<polyline fill="none" stroke="#FFFFFF" stroke-width="1.3225" stroke-linecap="round" stroke-linejoin="round" stroke-miterlimit="10" points="
		16.2,24.2 20.7,28.7 25,33 	"/>
	<g>
		<path fill="#FFFFFF" d="M11.6,19.6c5.5,1.1,7.5,2.9,8.2,4.4c0.7,1.6,0.2,3.1-0.1,3.7c-0.4,0.2-1.2,0.5-2.1,0.5
			C14,28.2,12.4,23.4,11.6,19.6 M10,18c1.4,9.6,5,11.5,7.6,11.5c1.7,0,3.1-0.8,3.1-0.8S25.9,20.3,10,18L10,18z"/>
	</g>
	
		<polyline fill="none" stroke="#FFFFFF" stroke-width="1.3225" stroke-linecap="round" stroke-linejoin="round" stroke-miterlimit="10" points="
		25,37.3 29.3,33 33.8,28.5 	"/>
	<g>
		<path fill="#FFFFFF" d="M38.4,23.9c-0.7,3.8-2.4,8.6-6,8.6c-0.9,0-1.7-0.3-2.1-0.5c-0.3-0.6-0.8-2.2-0.1-3.7
			C31.1,26.3,33.9,24.8,38.4,23.9 M40,22.3L40,22.3L40,22.3z M40,22.3C24.1,24.6,29.3,33,29.3,33s1.3,0.8,3.1,0.8
			C35,33.8,38.6,31.9,40,22.3L40,22.3z"/>
	</g>
</g>
</svg>
