<?xml version="1.0" encoding="utf-8"?>
<!-- Generator: Adobe Illustrator 18.0.0, SVG Export Plug-In . SVG Version: 6.00 Build 0)  -->
<!DOCTYPE svg PUBLIC "-//W3C//DTD SVG 1.1//EN" "http://www.w3.org/Graphics/SVG/1.1/DTD/svg11.dtd">
<svg version="1.1" id="Ebene_1" xmlns="http://www.w3.org/2000/svg" xmlns:xlink="http://www.w3.org/1999/xlink" x="0px" y="0px"
	 viewBox="0 0 50 50" enable-background="new 0 0 50 50" xml:space="preserve">
<g>
	
		<path fill="none" stroke="#222222" stroke-width="1.3228" stroke-linecap="round" stroke-linejoin="round" stroke-miterlimit="10" d="
		M18.3,40.1v-30c0,0,3.7,2.8,3.7,11.1c0,4.2-3.4,3.8-3.4,3.8"/>
	
		<line fill="none" stroke="#222222" stroke-width="1.3228" stroke-linecap="round" stroke-linejoin="round" stroke-miterlimit="10" x1="29.5" y1="40.1" x2="29.5" y2="21.2"/>
	
		<path fill="none" stroke="#222222" stroke-width="1.3228" stroke-linecap="round" stroke-linejoin="round" stroke-miterlimit="10" d="
		M25.7,17.2c0,2.1,1.7,3.8,3.8,3.8s3.8-1.7,3.8-3.8H25.7z"/>
	
		<line fill="none" stroke="#222222" stroke-width="1.3228" stroke-linecap="round" stroke-linejoin="round" stroke-miterlimit="10" x1="25.8" y1="17.4" x2="25.8" y2="9.9"/>
	
		<line fill="none" stroke="#222222" stroke-width="1.3228" stroke-linecap="round" stroke-linejoin="round" stroke-miterlimit="10" x1="28.3" y1="17.1" x2="28.3" y2="9.9"/>
	
		<line fill="none" stroke="#222222" stroke-width="1.3228" stroke-linecap="round" stroke-linejoin="round" stroke-miterlimit="10" x1="30.8" y1="17.1" x2="30.8" y2="9.9"/>
	
		<line fill="none" stroke="#222222" stroke-width="1.3228" stroke-linecap="round" stroke-linejoin="round" stroke-miterlimit="10" x1="33.3" y1="17.4" x2="33.3" y2="9.9"/>
</g>
<g>
	<path fill="#222222" d="M25,1.3c10.4,0,19.5,6.6,22.6,16.6c0.5,1.4,0.8,3,1,4.6v0.1c0,0,0,0.1,0,0.1c0.1,0.7,0.1,1.5,0.1,2.3
		c0,13.1-10.6,23.7-23.7,23.7C11.9,48.7,1.3,38.1,1.3,25c0-0.8,0-1.6,0.1-2.3c0,0,0-0.1,0-0.1v-0.1c0.2-1.5,0.5-3.1,1-4.6
		C5.5,8,14.6,1.3,25,1.3 M25,0C13.8,0,4.3,7.4,1.1,17.5c-0.5,1.6-0.8,3.2-1,4.9v0.1C0,23.4,0,24.2,0,25c0,13.8,11.2,25,25,25
		c13.8,0,25-11.2,25-25c0-0.8,0-1.6-0.1-2.4v-0.1c-0.2-1.7-0.5-3.4-1-5C45.7,7.4,36.2,0,25,0L25,0z"/>
</g>
</svg>
