<?xml version="1.0" encoding="utf-8"?>
<!-- Generator: Adobe Illustrator 18.0.0, SVG Export Plug-In . SVG Version: 6.00 Build 0)  -->
<!DOCTYPE svg PUBLIC "-//W3C//DTD SVG 1.1//EN" "http://www.w3.org/Graphics/SVG/1.1/DTD/svg11.dtd">
<svg version="1.1" id="Ebene_1" xmlns="http://www.w3.org/2000/svg" xmlns:xlink="http://www.w3.org/1999/xlink" x="0px" y="0px"
	 viewBox="0 0 50 50" enable-background="new 0 0 50 50" xml:space="preserve">
<g>
	<g>
		
			<path fill="none" stroke="#222222" stroke-width="1.3183" stroke-linecap="round" stroke-linejoin="round" stroke-miterlimit="10" d="
			M10.7,39.1c2.8,0,2.8,2.5,5.5,2.5c2.8,0,2.8-2.5,5.5-2.5c2.8,0,2.8,2.5,5.5,2.5c2.8,0,2.8-2.5,5.5-2.5s2.8,2.5,5.5,2.5"/>
	</g>
	
		<path fill="none" stroke="#222222" stroke-width="1.3183" stroke-linecap="round" stroke-linejoin="round" stroke-miterlimit="10" d="
		M10.7,36.9c2.8,0,2.8,2,5.5,2c2.8,0,2.8-2,5.5-2c2.8,0,2.8,2,5.5,2c2.8,0,2.8-2,5.5-2c2.8,0,2.8,2,5.5,2"/>
	<polyline fill="none" stroke="#222222" stroke-width="1.3183" stroke-linejoin="round" stroke-miterlimit="10" points="20.7,37 
		16.9,33.8 36.2,33.8 32.6,36.9 	"/>
	<polyline fill="none" stroke="#222222" stroke-width="1.3183" stroke-linejoin="round" stroke-miterlimit="10" points="27,33.8 
		27,22.4 20.8,30.5 26.3,30.5 	"/>
	
		<path fill="none" stroke="#222222" stroke-width="1.3183" stroke-linecap="round" stroke-linejoin="round" stroke-miterlimit="10" d="
		M9.7,19.9c0,0,1.8-3.2,4.2,0c0,0,1.8-3.2,4.2,0"/>
	
		<path fill="none" stroke="#222222" stroke-width="1.3183" stroke-linecap="round" stroke-linejoin="round" stroke-miterlimit="10" d="
		M19.5,14.6c0,0,1.1-2,2.6,0c0,0,1.1-2,2.6,0"/>
	
		<path fill="none" stroke="#222222" stroke-width="1.3183" stroke-linecap="round" stroke-linejoin="round" stroke-miterlimit="10" d="
		M38.2,11.6C38.2,11.6,38.2,11.6,38.2,11.6c-0.3-0.9-1.1-1.6-2.1-1.6c-0.8,0-1.5,0.5-1.9,1.1c-0.2-0.1-0.5-0.2-0.8-0.2
		c-0.9,0-1.7,0.8-1.7,1.7c-0.8,0.3-1.3,1.1-1.3,1.9c0,1.1,0.9,2.1,2.1,2.1c0.5,0,0.9-0.2,1.3-0.4c0.3,0.7,1.1,1.2,1.9,1.2
		c1,0,1.9-0.7,2.1-1.7c0.1,0,0.3,0.1,0.5,0.1c1.2,0,2.1-0.9,2.1-2.1S39.4,11.6,38.2,11.6z"/>
</g>
<g>
	<path fill="#222222" d="M25,1.3c10.4,0,19.5,6.6,22.6,16.6c0.5,1.4,0.8,3,1,4.6v0.1c0,0,0,0.1,0,0.1c0.1,0.7,0.1,1.5,0.1,2.3
		c0,13.1-10.6,23.7-23.7,23.7C11.9,48.7,1.3,38.1,1.3,25c0-0.8,0-1.6,0.1-2.3c0,0,0-0.1,0-0.1v-0.1c0.2-1.5,0.5-3.1,1-4.6
		C5.5,8,14.6,1.3,25,1.3 M25,0C13.8,0,4.3,7.4,1.1,17.5c-0.5,1.6-0.8,3.2-1,4.9v0.1C0,23.4,0,24.2,0,25c0,13.8,11.2,25,25,25
		c13.8,0,25-11.2,25-25c0-0.8,0-1.6-0.1-2.4v-0.1c-0.2-1.7-0.5-3.4-1-5C45.7,7.4,36.2,0,25,0L25,0z"/>
</g>
</svg>
