<?xml version="1.0" encoding="utf-8"?>
<!-- Generator: Adobe Illustrator 18.0.0, SVG Export Plug-In . SVG Version: 6.00 Build 0)  -->
<!DOCTYPE svg PUBLIC "-//W3C//DTD SVG 1.1//EN" "http://www.w3.org/Graphics/SVG/1.1/DTD/svg11.dtd">
<svg version="1.1" id="Ebene_1" xmlns="http://www.w3.org/2000/svg" xmlns:xlink="http://www.w3.org/1999/xlink" x="0px" y="0px"
	 viewBox="-6 5 50 50" style="enable-background:new -6 5 50 50;" xml:space="preserve">
<style type="text/css">
	.st0{fill:#FFFFFF;}
	.st1{fill:none;stroke:#222222;stroke-width:1.5;stroke-linejoin:round;stroke-miterlimit:10;}
</style>
<path class="st0" d="M19,39.9L19,39.9L19,39.9z"/>
<path class="st1" d="M12.2,51.1L-0.7,35c-2.2-2.8-3.5-6.2-3.5-9.9c0-8.9,7.4-16.1,16.4-16.1s16.4,7.3,16.4,16.1
	c0,3.7-1.3,7.1-3.5,9.9L12.2,51.1z M15.4,47.2l3.2,4l12.9-16.1c2.2-2.8,3.5-6.2,3.5-9.9C35,16.3,27.6,9,18.6,9
	c-0.9,0-1.8,0.1-2.6,0.2 M22.2,46.6l3.6,4.5L38.7,35c2.2-2.8,3.5-6.2,3.5-9.9c0-8.9-7.4-16.1-16.4-16.1c-1.3,0-2.4,0.1-3.6,0.5"/>
</svg>
