<?xml version="1.0" encoding="utf-8"?>
<!-- Generator: Adobe Illustrator 18.0.0, SVG Export Plug-In . SVG Version: 6.00 Build 0)  -->
<!DOCTYPE svg PUBLIC "-//W3C//DTD SVG 1.1//EN" "http://www.w3.org/Graphics/SVG/1.1/DTD/svg11.dtd">
<svg version="1.1" id="Ebene_1" xmlns="http://www.w3.org/2000/svg" xmlns:xlink="http://www.w3.org/1999/xlink" x="0px" y="0px"
	 viewBox="-6 5 50 50" style="enable-background:new -6 5 50 50;" xml:space="preserve">
<style type="text/css">
	.st0{fill:none;stroke:#222222;stroke-width:1.5;stroke-linecap:round;stroke-linejoin:round;stroke-miterlimit:10;}
</style>
<path class="st0" d="M36.3,24.4c0,9.4-9.1,17-20.4,17c-3,0-5.9-0.5-8.6-1.6l-6.7,5.1l1.2-8.4c-3.8-3.2-6.1-7.4-6.1-12.1
	c0-9.4,9.1-17,20.3-17C27.2,7.2,36.3,14.9,36.3,24.4z M36.3,25.9c3.6,2.5,6,6.1,6,10.4c0,3.7-1.8,7.1-4.7,9.6l0.9,6.7l-5.3-4.1
	c-2.1,0.8-4.3,1.3-6.7,1.3c-7,0-12.9-3.7-15-8.8"/>
</svg>
