<?xml version="1.0" encoding="utf-8"?>
<!-- Generator: Adobe Illustrator 18.0.0, SVG Export Plug-In . SVG Version: 6.00 Build 0)  -->
<!DOCTYPE svg PUBLIC "-//W3C//DTD SVG 1.1//EN" "http://www.w3.org/Graphics/SVG/1.1/DTD/svg11.dtd">
<svg version="1.1" id="Ebene_1" xmlns="http://www.w3.org/2000/svg" xmlns:xlink="http://www.w3.org/1999/xlink" x="0px" y="0px"
	 viewBox="-6 5 50 50" style="enable-background:new -6 5 50 50;" xml:space="preserve">
<style type="text/css">
	.st0{fill:none;stroke:#222222;stroke-width:1.5;stroke-linecap:round;stroke-linejoin:round;stroke-miterlimit:10;}
	.st1{fill:none;stroke:#222222;stroke-width:1.5;stroke-miterlimit:10;}
</style>
<path class="st0" d="M42.9,30C38.7,37.2,29.5,42.1,19,42.1C8.4,42.1-0.7,37.2-4.9,30C-0.7,22.8,8.5,17.9,19,17.9
	C29.6,17.9,38.8,22.8,42.9,30z"/>
<path class="st1" d="M14.4,30c0-2.5,2.2-4.6,4.6-4.6c2.6,0,4.6,2,4.6,4.6s-2,4.6-4.6,4.6C16.5,34.7,14.4,32.6,14.4,30"/>
<circle class="st1" cx="19" cy="30" r="4.6"/>
<path class="st0" d="M6.9,29.9c0-6.6,5.4-12,12.1-12S31.1,23.3,31.1,30S25.7,42.1,19,42.1C12.3,42,6.9,36.6,6.9,29.9z"/>
</svg>
