<?xml version="1.0" encoding="utf-8"?>
<!-- Generator: Adobe Illustrator 18.0.0, SVG Export Plug-In . SVG Version: 6.00 Build 0)  -->
<!DOCTYPE svg PUBLIC "-//W3C//DTD SVG 1.1//EN" "http://www.w3.org/Graphics/SVG/1.1/DTD/svg11.dtd">
<svg version="1.1" id="Ebene_1" xmlns="http://www.w3.org/2000/svg" xmlns:xlink="http://www.w3.org/1999/xlink" x="0px" y="0px"
	 viewBox="0 0 50 50" enable-background="new 0 0 50 50" xml:space="preserve">
<path fill="#EB6A4A" d="M50,25.1c0,13.8-11.2,25-25,25S0,38.9,0,25.1c0-0.8,0-1.7,0.1-2.5c0.2-1.7,0.5-3.4,1-5
	C4.3,7.4,13.8,0.1,25,0.1c11.2,0,20.7,7.4,23.8,17.5c0.5,1.6,0.8,3.3,1,5C50,23.4,50,24.2,50,25.1z"/>
<path fill="#ED7D5A" d="M48.7,17.6C45.5,7.4,36.1,0.1,24.9,0.1S4.2,7.4,1,17.6v0l0,0.1l-1,4.9v0.1c1.3,12.6,11.9,22.4,24.9,22.4
	s23.6-9.8,24.9-22.4v-0.1L48.7,17.6z"/>
<path fill="#EF8868" d="M48.7,17.6L48.7,17.6c-3.2,10.2-12.7,17.5-23.9,17.5C13.7,35.1,4.2,27.7,1,17.6v0C4.2,7.4,13.7,0.1,24.9,0.1
	C36.1,0.1,45.5,7.4,48.7,17.6z"/>
<g>
	
		<line fill="none" stroke="#FFFFFF" stroke-width="1.3228" stroke-linecap="round" stroke-linejoin="round" stroke-miterlimit="10" x1="9.4" y1="40.3" x2="40.6" y2="40.3"/>
	
		<line fill="none" stroke="#FFFFFF" stroke-width="1.3228" stroke-linecap="round" stroke-linejoin="round" stroke-miterlimit="10" x1="9.4" y1="37.5" x2="40.6" y2="37.5"/>
	
		<line fill="none" stroke="#FFFFFF" stroke-width="1.3228" stroke-linecap="round" stroke-linejoin="round" stroke-miterlimit="10" x1="12.9" y1="19.1" x2="35.9" y2="19.1"/>
	
		<line fill="none" stroke="#FFFFFF" stroke-width="1.3228" stroke-linecap="round" stroke-linejoin="round" stroke-miterlimit="10" x1="10.5" y1="25.4" x2="39.1" y2="25.4"/>
	<g>
		
			<line fill="none" stroke="#FFFFFF" stroke-width="1.3228" stroke-linecap="round" stroke-linejoin="round" stroke-miterlimit="10" x1="12.9" y1="37.5" x2="12.9" y2="25.9"/>
		
			<line fill="none" stroke="#FFFFFF" stroke-width="1.3228" stroke-linecap="round" stroke-linejoin="round" stroke-miterlimit="10" x1="18.7" y1="37.5" x2="18.7" y2="25.9"/>
		
			<line fill="none" stroke="#FFFFFF" stroke-width="1.3228" stroke-linecap="round" stroke-linejoin="round" stroke-miterlimit="10" x1="24.4" y1="37.5" x2="24.4" y2="25.9"/>
		
			<line fill="none" stroke="#FFFFFF" stroke-width="1.3228" stroke-linecap="round" stroke-linejoin="round" stroke-miterlimit="10" x1="30.2" y1="37.5" x2="30.2" y2="25.9"/>
		
			<line fill="none" stroke="#FFFFFF" stroke-width="1.3228" stroke-linecap="round" stroke-linejoin="round" stroke-miterlimit="10" x1="35.9" y1="37.5" x2="35.9" y2="25.9"/>
	</g>
	<g>
		
			<line fill="none" stroke="#FFFFFF" stroke-width="1.3228" stroke-linecap="round" stroke-linejoin="round" stroke-miterlimit="10" x1="15.8" y1="24.8" x2="15.8" y2="19.6"/>
		
			<line fill="none" stroke="#FFFFFF" stroke-width="1.3228" stroke-linecap="round" stroke-linejoin="round" stroke-miterlimit="10" x1="21.5" y1="24.8" x2="21.5" y2="19.6"/>
		
			<line fill="none" stroke="#FFFFFF" stroke-width="1.3228" stroke-linecap="round" stroke-linejoin="round" stroke-miterlimit="10" x1="27.3" y1="24.8" x2="27.3" y2="19.6"/>
		
			<line fill="none" stroke="#FFFFFF" stroke-width="1.3228" stroke-linecap="round" stroke-linejoin="round" stroke-miterlimit="10" x1="33" y1="24.8" x2="33" y2="19.6"/>
	</g>
	
		<path fill="none" stroke="#FFFFFF" stroke-width="1.3228" stroke-linecap="round" stroke-linejoin="round" stroke-miterlimit="10" d="
		M33.1,18.5c0-4.8-3.9-8.6-8.6-8.6s-8.6,3.9-8.6,8.6"/>
	
		<line fill="none" stroke="#FFFFFF" stroke-width="1.3228" stroke-linecap="round" stroke-linejoin="round" stroke-miterlimit="10" x1="24.4" y1="7.1" x2="24.4" y2="9.9"/>
</g>
</svg>
