<?xml version="1.0" encoding="utf-8"?>
<!-- Generator: Adobe Illustrator 18.0.0, SVG Export Plug-In . SVG Version: 6.00 Build 0)  -->
<!DOCTYPE svg PUBLIC "-//W3C//DTD SVG 1.1//EN" "http://www.w3.org/Graphics/SVG/1.1/DTD/svg11.dtd">
<svg version="1.1" id="Ebene_1" xmlns="http://www.w3.org/2000/svg" xmlns:xlink="http://www.w3.org/1999/xlink" x="0px" y="0px"
	 viewBox="0 0 50 50" enable-background="new 0 0 50 50" xml:space="preserve">
<path fill="#9BABBA" d="M50,25.2C50,38.9,38.8,50,25,50C11.2,50,0,38.9,0,25.2c0-0.9,0.1-1.8,0.1-2.6c0.2-1.7,0.5-3.4,1.1-5
	C4.4,7.6,13.9,0.3,25,0.3s20.6,7.2,23.8,17.2c0.5,1.6,0.9,3.3,1.1,5C49.9,23.4,50,24.3,50,25.2z"/>
<path fill="#A5B3C1" d="M49,17.4C45.8,7.3,36.3,0,25.1,0S4.4,7.3,1.3,17.4v0l0,0.1l-1,4.8v0.1C1.5,35,12.2,44.7,25.1,44.7
	S48.7,35,50,22.4v-0.1L49,17.4z"/>
<path fill="#AEBAC7" d="M49,17.4L49,17.4c-3.2,10.1-12.7,17.4-23.9,17.4c-11.2,0-20.7-7.3-23.8-17.4v0C4.4,7.3,13.9,0,25.1,0
	C36.3,0,45.8,7.3,49,17.4z"/>
<g>
	<g>
		
			<path fill="none" stroke="#FFFFFF" stroke-width="1.3183" stroke-linecap="round" stroke-linejoin="round" stroke-miterlimit="10" d="
			M10.7,39.1c2.8,0,2.8,2.5,5.5,2.5c2.8,0,2.8-2.5,5.5-2.5c2.8,0,2.8,2.5,5.5,2.5c2.8,0,2.8-2.5,5.5-2.5s2.8,2.5,5.5,2.5"/>
	</g>
	
		<path fill="none" stroke="#FFFFFF" stroke-width="1.3183" stroke-linecap="round" stroke-linejoin="round" stroke-miterlimit="10" d="
		M10.7,36.9c2.8,0,2.8,2,5.5,2c2.8,0,2.8-2,5.5-2c2.8,0,2.8,2,5.5,2c2.8,0,2.8-2,5.5-2c2.8,0,2.8,2,5.5,2"/>
	<polyline fill="none" stroke="#FFFFFF" stroke-width="1.3183" stroke-linejoin="round" stroke-miterlimit="10" points="20.7,37 
		16.9,33.8 36.2,33.8 32.6,36.9 	"/>
	<polyline fill="none" stroke="#FFFFFF" stroke-width="1.3183" stroke-linejoin="round" stroke-miterlimit="10" points="27,33.8 
		27,22.4 20.8,30.5 26.3,30.5 	"/>
	
		<path fill="none" stroke="#FFFFFF" stroke-width="1.3183" stroke-linecap="round" stroke-linejoin="round" stroke-miterlimit="10" d="
		M9.7,19.9c0,0,1.8-3.2,4.2,0c0,0,1.8-3.2,4.2,0"/>
	
		<path fill="none" stroke="#FFFFFF" stroke-width="1.3183" stroke-linecap="round" stroke-linejoin="round" stroke-miterlimit="10" d="
		M19.5,14.6c0,0,1.1-2,2.6,0c0,0,1.1-2,2.6,0"/>
	
		<path fill="none" stroke="#FFFFFF" stroke-width="1.3183" stroke-linecap="round" stroke-linejoin="round" stroke-miterlimit="10" d="
		M38.2,11.6C38.2,11.6,38.2,11.6,38.2,11.6c-0.3-0.9-1.1-1.6-2.1-1.6c-0.8,0-1.5,0.5-1.9,1.1c-0.2-0.1-0.5-0.2-0.8-0.2
		c-0.9,0-1.7,0.8-1.7,1.7c-0.8,0.3-1.3,1.1-1.3,1.9c0,1.1,0.9,2.1,2.1,2.1c0.5,0,0.9-0.2,1.3-0.4c0.3,0.7,1.1,1.2,1.9,1.2
		c1,0,1.9-0.7,2.1-1.7c0.1,0,0.3,0.1,0.5,0.1c1.2,0,2.1-0.9,2.1-2.1S39.4,11.6,38.2,11.6z"/>
</g>
</svg>
